<svg width="166" height="116" viewBox="0 0 166 116" fill="none" xmlns="http://www.w3.org/2000/svg">
<g clip-path="url(#clip0_83_3)">
<path d="M24.6093 82.2293C24.4731 82.03 24.2934 81.862 24.0827 81.7371C23.8721 81.6122 23.6357 81.5335 23.3902 81.5065C23.1447 81.4795 22.896 81.5048 22.6617 81.5808C22.4274 81.6567 22.2132 81.7813 22.0342 81.9459L16.6967 79.2832L17.0285 82.2829L22.0462 84.3516C22.3522 84.624 22.751 84.7784 23.1669 84.7857C23.5829 84.7929 23.9871 84.6524 24.3031 84.3908C24.619 84.1292 24.8247 83.7646 24.8811 83.3663C24.9376 82.9679 24.8409 82.5633 24.6093 82.2293H24.6093Z" fill="#A0616A"/>
<path d="M19.8659 83.4366C19.7693 83.4794 19.6645 83.5021 19.5582 83.5032C19.452 83.5043 19.3467 83.4838 19.2492 83.443L14.1793 81.3174C12.4458 80.5908 11.0444 79.2804 10.2357 77.63L7.57032 72.1923C7.37361 71.948 7.22865 71.6687 7.14372 71.3703C7.0588 71.0719 7.03556 70.7602 7.07536 70.453C7.11516 70.1459 7.21719 69.8494 7.37565 69.5804C7.5341 69.3115 7.74585 69.0753 7.9988 68.8855C8.25175 68.6957 8.54093 68.5559 8.84981 68.4742C9.15868 68.3925 9.4812 68.3704 9.7989 68.4092C10.1166 68.4481 10.4233 68.5471 10.7014 68.7005C10.9795 68.854 11.2235 69.059 11.4196 69.3037L16.1047 77.705L20.4307 80.8634C20.5545 80.9543 20.6465 81.0796 20.6942 81.2226C20.7419 81.3656 20.743 81.5193 20.6974 81.6629L20.2727 82.9885C20.2271 83.1306 20.1378 83.2559 20.0166 83.3478C19.9702 83.383 19.9196 83.4129 19.8659 83.4366Z" fill="#CCCCCC"/>
<path d="M7.45302 65.7972C9.73306 65.7972 11.5814 64.0107 11.5814 61.807C11.5814 59.6033 9.73306 57.8169 7.45302 57.8169C5.17298 57.8169 3.32465 59.6033 3.32465 61.807C3.32465 64.0107 5.17298 65.7972 7.45302 65.7972Z" fill="#A0616A"/>
<path d="M9.12525 114.151L11.1858 114.151L12.1663 106.468L9.12474 106.468L9.12525 114.151Z" fill="#A0616A"/>
<path d="M15.1602 116L8.68367 116L8.68356 113.581L12.6578 113.581C13.3214 113.581 13.9579 113.836 14.4272 114.289C14.8965 114.743 15.1601 115.358 15.1602 116L15.1602 116Z" fill="white"/>
<path d="M2.40179 114.151L4.46236 114.151L5.44281 106.468L2.40128 106.468L2.40179 114.151Z" fill="#A0616A"/>
<path d="M8.4367 116L1.96021 116L1.9601 113.581L5.93431 113.581C6.59796 113.581 7.23443 113.836 7.70372 114.289C8.17301 114.743 8.43668 115.358 8.43671 116L8.4367 116Z" fill="white"/>
<path d="M1.68217 111.952C1.61117 111.873 1.55831 111.781 1.52715 111.682C1.49599 111.582 1.48723 111.477 1.50148 111.374L5.10939 85.2202L14.0732 86.6915L15.0298 86.1368L12.556 110.951C12.5355 111.119 12.4557 111.274 12.3303 111.392C12.2049 111.509 12.0414 111.581 11.8675 111.595L9.15332 111.814C9.04541 111.823 8.93682 111.809 8.8349 111.774C8.73298 111.738 8.6401 111.682 8.56254 111.609C8.48499 111.536 8.42457 111.448 8.38537 111.35C8.34617 111.253 8.32911 111.148 8.33533 111.044L9.03804 99.2259C9.03928 99.2059 9.03278 99.186 9.01978 99.1703C9.00678 99.1546 8.98821 99.1441 8.96767 99.1409C8.94713 99.1377 8.92608 99.1419 8.90859 99.1528C8.8911 99.1637 8.87842 99.1805 8.87299 99.1999L5.39645 111.661C5.35297 111.816 5.25793 111.953 5.12595 112.05C4.99398 112.148 4.83241 112.201 4.66616 112.201H2.25127C2.14349 112.201 2.03695 112.179 1.9388 112.136C1.84064 112.093 1.75315 112.03 1.68217 111.952Z" fill="#2F2E41"/>
<path d="M7.89001 87.0507C7.78712 86.9607 7.65486 86.9083 7.51619 86.9027C7.37752 86.8971 7.2412 86.9386 7.13091 87.0201L5.33879 88.3673C5.24127 88.4409 5.12657 88.4901 5.00475 88.5108C4.88293 88.5315 4.75772 88.523 4.64011 88.486C4.5225 88.449 4.41608 88.3846 4.33019 88.2986C4.2443 88.2126 4.18157 88.1075 4.1475 87.9926C3.26845 85.0171 1.27686 77.5274 1.76749 72.2559C2.0456 69.2678 4.71524 66.9969 7.71859 67.1874C9.77187 67.3198 11.1227 68.4646 11.7335 70.59C13.2333 75.8085 14.8815 85.3809 15.1966 87.2469C15.2215 87.3917 15.2005 87.5404 15.1364 87.6734C15.0724 87.8065 14.9682 87.9177 14.8375 87.9924C13.9896 88.4844 13.0208 88.748 12.0318 88.7556C10.8352 88.7556 9.40041 88.3529 7.89001 87.0507Z" fill="#CCCCCC"/>
<path d="M8.5662 88.9068C8.58627 88.6688 8.55209 88.4294 8.46608 88.2055C8.38006 87.9816 8.24431 87.7787 8.06837 87.611C7.89243 87.4433 7.68058 87.3149 7.44776 87.2349C7.21493 87.1549 6.96679 87.1252 6.72081 87.1479L4.22106 81.8691L2.56683 84.4274L5.19425 89.048C5.26111 89.4449 5.47628 89.8043 5.79897 90.0581C6.12167 90.3118 6.52947 90.4424 6.9451 90.425C7.36074 90.4076 7.75533 90.2434 8.05411 89.9636C8.35289 89.6838 8.53509 89.3078 8.5662 88.9068Z" fill="#A0616A"/>
<path d="M4.06279 87.028C3.95946 87.0041 3.86249 86.9594 3.77818 86.8969C3.69388 86.8344 3.62413 86.7555 3.57347 86.6652L0.941374 81.9686C0.0412354 80.363 -0.224833 78.496 0.192659 76.7149L1.56735 70.8464C1.5686 70.5369 1.63294 70.2307 1.75669 69.9453C1.88045 69.6599 2.06119 69.4008 2.28859 69.183C2.51599 68.9651 2.78559 68.7927 3.08197 68.6756C3.37836 68.5585 3.69571 68.499 4.0159 68.5005C4.33609 68.502 4.65283 68.5645 4.94801 68.6844C5.2432 68.8043 5.51104 68.9793 5.73623 69.1993C5.96142 69.4193 6.13953 69.68 6.2604 69.9666C6.38126 70.2532 6.44251 70.5599 6.44063 70.8694L4.76288 80.2746L6.15021 85.3401C6.18965 85.4855 6.18197 85.639 6.1282 85.7799C6.07443 85.9209 5.97717 86.0425 5.84957 86.1283L4.6691 86.9181C4.54246 87.0027 4.39214 87.048 4.23817 87.048C4.1791 87.0481 4.12023 87.0413 4.06279 87.028Z" fill="#CCCCCC"/>
<path opacity="0.2" d="M6.10574 74.8354L4.59296 81.0089L6.77809 86.2075L5.26531 81.1713L6.10574 74.8354Z" fill="black"/>
<path d="M5.09716 65.0884C4.72993 65.0949 4.36499 65.0311 4.02343 64.9006C3.87314 64.8446 3.71713 64.7986 3.56712 64.7426C2.24232 64.2479 1.36962 62.8842 1.33836 61.5118C1.30711 60.1395 2.04242 58.8075 3.1343 57.9297C4.22619 57.0518 5.64045 56.6012 7.0566 56.4969C8.58202 56.3847 10.2997 56.7586 11.1521 57.9864C11.379 58.3132 11.5377 58.7098 11.4032 59.1044C11.3629 59.2235 11.291 59.3302 11.1946 59.414C10.814 59.7413 10.4345 59.4952 10.0464 59.4735C9.51304 59.4436 9.03397 59.8609 8.86179 60.3497C8.6896 60.8385 8.7654 61.3767 8.90443 61.8753C9.01034 62.1753 9.07711 62.487 9.10319 62.803C9.11441 62.9614 9.08357 63.12 9.01361 63.2637C8.94364 63.4074 8.83686 63.5315 8.70338 63.6241C8.37009 63.8189 7.93238 63.7062 7.59889 63.5118C7.26539 63.3174 6.97723 63.047 6.617 62.904C6.25677 62.7609 5.7728 62.7927 5.56313 63.1099C5.4965 63.2253 5.4514 63.3511 5.42989 63.4817C5.24193 64.3094 5.28513 64.2606 5.09716 65.0883L5.09716 65.0884Z" fill="#2F2E41"/>
<path d="M127.298 37.4434H25.2691C24.8805 37.4437 24.5079 37.593 24.233 37.8586C23.9582 38.1242 23.8037 38.4844 23.8034 38.86V105.683C23.8037 106.058 23.9582 106.418 24.233 106.684C24.5079 106.949 24.8805 107.099 25.2691 107.099H127.298C127.509 107.099 127.719 107.055 127.911 106.969C128.104 106.883 128.274 106.758 128.412 106.602C128.424 106.59 128.434 106.577 128.444 106.563C128.531 106.46 128.602 106.344 128.654 106.22C128.728 106.05 128.765 105.867 128.765 105.683V64.085H128.346V105.683C128.347 105.88 128.286 106.073 128.173 106.238C128.073 106.383 127.936 106.501 127.777 106.583C127.628 106.656 127.464 106.695 127.298 106.695H25.2691C24.9915 106.694 24.7253 106.588 24.529 106.398C24.3326 106.208 24.2222 105.951 24.2218 105.683V38.86C24.2222 38.5917 24.3326 38.3344 24.529 38.1447C24.7253 37.9549 24.9915 37.8482 25.2691 37.8479H127.298C127.575 37.8479 127.842 37.9544 128.039 38.1442C128.235 38.334 128.346 38.5914 128.346 38.86V47.8391H128.765V38.86C128.764 38.4841 128.61 38.1238 128.335 37.8582C128.059 37.5926 127.686 37.4434 127.298 37.4434Z" fill="white"/>
<path d="M128.554 43.1221H24.012V43.5271H128.554V43.1221Z" fill="white"/>
<path d="M27.5736 41.6965C28.2678 41.6965 28.8306 41.1525 28.8306 40.4815C28.8306 39.8105 28.2678 39.2666 27.5736 39.2666C26.8793 39.2666 26.3165 39.8105 26.3165 40.4815C26.3165 41.1525 26.8793 41.6965 27.5736 41.6965Z" fill="#CCCCCC"/>
<path d="M31.1875 41.6965C31.8817 41.6965 32.4445 41.1525 32.4445 40.4815C32.4445 39.8105 31.8817 39.2666 31.1875 39.2666C30.4933 39.2666 29.9305 39.8105 29.9305 40.4815C29.9305 41.1525 30.4933 41.6965 31.1875 41.6965Z" fill="#CCCCCC"/>
<path d="M34.8014 41.6965C35.4957 41.6965 36.0585 41.1525 36.0585 40.4815C36.0585 39.8105 35.4957 39.2666 34.8014 39.2666C34.1072 39.2666 33.5444 39.8105 33.5444 40.4815C33.5444 41.1525 34.1072 41.6965 34.8014 41.6965Z" fill="#CCCCCC"/>
<path d="M60.0499 98.9089C59.6172 98.907 59.1918 98.8008 58.8123 98.5999C58.4327 98.399 58.111 98.1098 57.8763 97.7585C57.6415 97.4071 57.5011 97.0047 57.4678 96.5877C57.4345 96.1708 57.5094 95.7523 57.6855 95.3703L60.6802 88.9126C58.3217 86.8963 56.4343 84.4179 55.1434 81.6422C53.8526 78.8664 53.1878 75.8569 53.1934 72.8136C53.1934 60.9241 63.2014 51.251 75.503 51.251C87.8047 51.251 97.8126 60.9241 97.8126 72.8136C97.8126 84.7031 87.8047 94.3762 75.503 94.3762C73.3511 94.3741 71.2108 94.0695 69.1497 93.4717L61.5068 98.4726C61.0774 98.7559 60.5698 98.9079 60.0499 98.9089ZM75.503 54.2597C71.5217 54.2575 67.6383 55.4524 64.3911 57.6789C61.1439 59.9054 58.6938 63.053 57.3804 66.6856C56.067 70.3182 55.9554 74.2558 57.061 77.9524C58.1667 81.649 60.4348 84.9217 63.551 87.3167L64.4944 88.0439L61.2722 94.9928L68.6666 90.1545L69.3967 90.3915C72.0342 91.2479 74.8329 91.5398 77.5988 91.2469C80.3646 90.9539 83.0315 90.0832 85.4146 88.6951C87.7976 87.3069 89.8399 85.4345 91.3999 83.2077C92.9598 80.9808 94.0001 78.4527 94.4486 75.7987C94.8972 73.1446 94.7433 70.428 93.9975 67.8371C93.2518 65.2462 91.9321 62.8431 90.1299 60.7942C88.3277 58.7453 86.0861 57.0997 83.5604 55.9713C81.0347 54.843 78.2854 54.259 75.503 54.2597Z" fill="white"/>
<path d="M75.503 74.8192C77.2222 74.8192 78.616 73.4722 78.616 71.8105C78.616 70.1488 77.2222 68.8018 75.503 68.8018C73.7838 68.8018 72.39 70.1488 72.39 71.8105C72.39 73.4722 73.7838 74.8192 75.503 74.8192Z" fill="white"/>
<path d="M66.6829 74.8192C68.4022 74.8192 69.7959 73.4722 69.7959 71.8105C69.7959 70.1488 68.4022 68.8018 66.6829 68.8018C64.9637 68.8018 63.57 70.1488 63.57 71.8105C63.57 73.4722 64.9637 74.8192 66.6829 74.8192Z" fill="white"/>
<path d="M84.3231 74.8192C86.0423 74.8192 87.436 73.4722 87.436 71.8105C87.436 70.1488 86.0423 68.8018 84.3231 68.8018C82.6038 68.8018 81.2101 70.1488 81.2101 71.8105C81.2101 73.4722 82.6038 74.8192 84.3231 74.8192Z" fill="white"/>
<path d="M153.784 59.9021H124.201C123.844 59.9021 123.502 59.7651 123.25 59.5214C122.998 59.2777 122.856 58.9471 122.856 58.6024C122.856 58.2577 122.998 57.9271 123.25 57.6834C123.502 57.4397 123.844 57.3027 124.201 57.3027H153.784C154.141 57.3027 154.483 57.4397 154.735 57.6834C154.987 57.9271 155.129 58.2577 155.129 58.6024C155.129 58.9471 154.987 59.2777 154.735 59.5214C154.483 59.7651 154.141 59.9021 153.784 59.9021Z" fill="#CCCCCC"/>
<path d="M134.454 54.3786H124.201C123.844 54.3786 123.502 54.2417 123.25 53.998C122.998 53.7542 122.856 53.4237 122.856 53.079C122.856 52.7343 122.998 52.4037 123.25 52.16C123.502 51.9162 123.844 51.7793 124.201 51.7793H134.454C134.811 51.7793 135.153 51.9162 135.405 52.16C135.657 52.4037 135.799 52.7343 135.799 53.079C135.799 53.4237 135.657 53.7542 135.405 53.998C135.153 54.2417 134.811 54.3786 134.454 54.3786Z" fill="#CCCCCC"/>
<path d="M110.802 61.4857C113.958 61.4857 116.517 59.0127 116.517 55.9621C116.517 52.9115 113.958 50.4385 110.802 50.4385C107.646 50.4385 105.087 52.9115 105.087 55.9621C105.087 59.0127 107.646 61.4857 110.802 61.4857Z" fill="#6C63FF"/>
<path d="M156.75 47.5142H103.466C102.709 47.5152 101.983 47.8065 101.447 48.3242C100.911 48.8419 100.61 49.5438 100.609 50.276V61.6481C100.61 62.3802 100.911 63.0821 101.447 63.5998C101.983 64.1175 102.709 64.4088 103.466 64.4099H156.75C157.507 64.4088 158.233 64.1175 158.769 63.5998C159.305 63.0821 159.606 62.3802 159.607 61.6481V50.276C159.606 49.5438 159.305 48.8419 158.769 48.3242C158.233 47.8065 157.507 47.5152 156.75 47.5142ZM159.271 61.6481C159.27 62.2941 159.004 62.9135 158.532 63.3703C158.059 63.8272 157.418 64.0842 156.75 64.0849H103.466C102.798 64.0842 102.157 63.8272 101.684 63.3703C101.212 62.9135 100.946 62.2941 100.945 61.6481V50.276C100.946 49.6299 101.212 49.0105 101.684 48.5537C102.157 48.0969 102.798 47.8399 103.466 47.8391H156.75C157.418 47.8399 158.059 48.0969 158.532 48.5537C159.004 49.0105 159.27 49.6299 159.271 50.276V61.6481Z" fill="white"/>
<path d="M159.271 52.0629C161.406 52.0629 163.137 50.39 163.137 48.3264C163.137 46.2628 161.406 44.5898 159.271 44.5898C157.136 44.5898 155.405 46.2628 155.405 48.3264C155.405 50.39 157.136 52.0629 159.271 52.0629Z" fill="#6C63FF"/>
<path d="M159.152 50.428C159.136 50.4129 159.124 50.395 159.116 50.3753C159.107 50.3556 159.103 50.3344 159.103 50.3131V46.1776C159.103 46.1345 159.121 46.0932 159.152 46.0627C159.184 46.0322 159.226 46.0151 159.271 46.0151C159.315 46.0151 159.358 46.0322 159.39 46.0627C159.421 46.0932 159.439 46.1345 159.439 46.1776V50.3131C159.439 50.3452 159.429 50.3766 159.411 50.4033C159.392 50.4301 159.366 50.4509 159.335 50.4632C159.305 50.4755 159.271 50.4787 159.238 50.4724C159.206 50.4662 159.176 50.4507 159.152 50.428Z" fill="white"/>
<path d="M157.013 48.3603C156.989 48.3376 156.973 48.3087 156.967 48.2771C156.96 48.2456 156.964 48.213 156.976 48.1833C156.989 48.1536 157.011 48.1282 157.038 48.1104C157.066 48.0925 157.098 48.083 157.132 48.083H161.41C161.455 48.083 161.498 48.1001 161.529 48.1306C161.561 48.1611 161.578 48.2024 161.578 48.2455C161.578 48.2885 161.561 48.3298 161.529 48.3603C161.498 48.3908 161.455 48.4079 161.41 48.4079H157.132C157.109 48.4079 157.088 48.4037 157.067 48.3956C157.047 48.3874 157.028 48.3754 157.013 48.3603Z" fill="white"/>
<path d="M163.899 97.9912H155.829C155.829 98.2154 147.512 98.3974 147.512 98.3974C147.382 98.4924 147.263 98.6014 147.158 98.7223C146.842 99.0864 146.669 99.5467 146.67 100.022V100.347C146.67 100.885 146.892 101.402 147.286 101.783C147.68 102.163 148.214 102.377 148.771 102.378H163.899C164.456 102.377 164.99 102.163 165.384 101.782C165.778 101.402 166 100.885 166 100.347V100.022C165.999 99.4836 165.778 98.9675 165.384 98.5868C164.99 98.2062 164.456 97.992 163.899 97.9912Z" fill="#3F3D56"/>
<path d="M157.511 102.297H155.326V115.943H157.511V102.297Z" fill="#3F3D56"/>
<path d="M163.73 115.869C163.73 116.098 160.419 115.958 156.334 115.958C152.25 115.958 148.938 116.098 148.938 115.869C148.938 115.641 152.25 113.832 156.334 113.832C160.419 113.832 163.73 115.641 163.73 115.869Z" fill="#3F3D56"/>
<path d="M157.119 79.7037C159.719 79.7037 161.826 77.6671 161.826 75.1548C161.826 72.6425 159.719 70.606 157.119 70.606C154.52 70.606 152.413 72.6425 152.413 75.1548C152.413 77.6671 154.52 79.7037 157.119 79.7037Z" fill="#2F2E41"/>
<path d="M145.407 114.075L143.346 114.074L142.366 106.392L145.407 106.392L145.407 114.075Z" fill="#FFB8B8"/>
<path d="M141.874 113.505H145.849V115.924H139.372C139.372 115.282 139.636 114.667 140.105 114.214C140.574 113.76 141.211 113.505 141.874 113.505Z" fill="white"/>
<path d="M142.19 112.963L140.224 112.367L141.668 104.753L144.57 105.633L142.19 112.963Z" fill="#FFB8B8"/>
<path d="M138.996 111.397L142.788 112.548L142.039 114.855L135.859 112.981C136.058 112.369 136.5 111.858 137.088 111.561C137.677 111.264 138.363 111.205 138.996 111.397Z" fill="white"/>
<path d="M158.38 96.6595C158.332 96.2723 158.247 95.8905 158.125 95.519L157.74 95.0511L156.738 93.8359L156.694 93.8376C156.62 93.8408 156.313 93.8571 155.837 93.8928H155.832C155.538 93.9155 155.178 93.9448 154.77 93.9821C154.662 93.9935 154.549 94.0033 154.433 94.0146V95.7107H156.534C156.637 95.7108 156.735 95.7468 156.812 95.812C156.889 95.8771 156.938 95.967 156.951 96.0649C156.953 96.0827 156.955 96.099 156.955 96.1169C156.955 96.2246 156.91 96.3278 156.832 96.404C156.753 96.4802 156.646 96.523 156.534 96.523H144.331C144.176 96.6228 144.027 96.7313 143.884 96.8479C143.454 97.1696 143.145 97.6178 143.002 98.1248C142.289 101.153 140.99 106.8 140.607 108.459C140.579 108.584 140.585 108.714 140.625 108.836C140.665 108.957 140.737 109.067 140.833 109.154C140.905 109.219 140.989 109.269 141.081 109.302L142.597 109.851C142.659 109.873 142.724 109.888 142.79 109.895C142.798 109.895 142.805 109.897 142.814 109.897C142.829 109.898 142.845 109.898 142.861 109.898C143.014 109.898 143.163 109.852 143.29 109.768C143.416 109.684 143.513 109.565 143.568 109.427L144.765 106.392L146.609 101.714L147.338 99.8631C148.184 100.055 155.277 101.572 157.652 99.1272C157.887 98.8863 158.071 98.6046 158.197 98.297C158.397 97.7741 158.46 97.2116 158.38 96.6595Z" fill="#2F2E41"/>
<path d="M160.437 97.1014C160.4 96.9568 160.358 96.8073 160.31 96.6562L158.923 94.9731L158.879 94.9748C158.792 94.9796 158.377 95.0008 157.74 95.0511C157.017 95.1096 156.007 95.2038 154.872 95.3517C154.838 95.3549 154.803 95.3598 154.77 95.3647C154.659 95.3793 154.546 95.3939 154.433 95.4102V95.7107H156.534C156.637 95.7108 156.735 95.7468 156.812 95.812C156.889 95.8771 156.938 95.967 156.951 96.0649C156.953 96.0827 156.955 96.099 156.955 96.1169C156.955 96.2246 156.91 96.3278 156.832 96.404C156.753 96.4802 156.646 96.523 156.534 96.523H149.108C148.784 96.6254 148.471 96.7326 148.172 96.8479C146.602 97.449 145.427 98.2369 145.187 99.2621C145.106 99.6065 145.017 99.985 144.923 100.388C144.573 101.886 144.148 103.72 143.763 105.387V105.388C143.684 105.733 143.605 106.067 143.53 106.392C143.209 107.79 142.936 108.974 142.792 109.596C142.788 109.614 142.785 109.63 142.782 109.648V109.651C142.765 109.777 142.781 109.905 142.829 110.023L142.83 110.025V110.027C142.877 110.14 142.952 110.24 143.049 110.317C143.114 110.369 143.187 110.41 143.266 110.439L144.782 110.988C144.866 111.019 144.956 111.035 145.046 111.035C145.172 111.036 145.296 111.005 145.407 110.946C145.566 110.863 145.689 110.727 145.753 110.564L149.018 102.285L149.524 101C150.369 101.192 157.462 102.708 159.837 100.264C160.307 99.7736 160.574 99.1341 160.59 98.466C160.607 98.0064 160.555 97.5469 160.437 97.1014Z" fill="#2F2E41"/>
<path d="M160.251 82.7694C160.224 82.7385 160.195 82.7077 160.165 82.6784C159.717 82.2235 159.165 81.8776 158.552 81.6689C157.939 81.4602 157.284 81.3948 156.64 81.4778C156.079 81.5492 155.522 81.655 154.975 81.7946C154.267 81.9704 153.619 82.3215 153.095 82.8133C152.687 83.1958 152.366 83.6562 152.151 84.1652C151.937 84.6742 151.834 85.2206 151.85 85.77C151.857 85.9926 151.858 86.22 151.855 86.4507C151.855 86.5579 151.853 86.6668 151.852 86.7756H153.509C153.581 86.7754 153.652 86.7836 153.722 86.8C153.925 86.8467 154.105 86.9578 154.234 87.1155C154.363 87.2731 154.433 87.4682 154.433 87.6691V95.2267C154.546 95.2576 154.659 95.2885 154.77 95.3209C154.805 95.3323 154.838 95.3421 154.872 95.3518C154.911 95.3632 154.949 95.3745 154.986 95.3859C155.328 95.4883 155.661 95.5966 155.986 95.7108H156.534C156.637 95.711 156.735 95.747 156.812 95.8121C156.888 95.8773 156.938 95.9671 156.951 96.065C157.066 96.1088 157.177 96.1527 157.286 96.1966C157.674 96.3525 158.042 96.5085 158.38 96.6596C158.836 96.861 159.241 97.0527 159.58 97.2201C159.687 97.2726 159.805 97.3005 159.925 97.3013C160.082 97.3008 160.235 97.2519 160.362 97.1616C160.388 97.1428 160.413 97.1228 160.437 97.1015C160.527 97.02 160.595 96.9185 160.635 96.8058C160.676 96.6931 160.687 96.5726 160.668 96.4549C160.494 95.1787 160.444 93.8898 160.516 92.6046C160.563 91.5243 160.664 90.4163 160.795 89.3457C160.866 88.7657 160.945 88.1971 161.027 87.6496C161.106 87.1265 161.19 86.6245 161.273 86.1501C161.381 85.5486 161.345 84.9311 161.168 84.3451C160.991 83.7591 160.677 83.2201 160.251 82.7694Z" fill="#6C63FF"/>
<path d="M153.361 82.9026C153.275 82.8668 153.186 82.837 153.095 82.8133C152.647 82.6967 152.171 82.7397 151.753 82.9345C151.335 83.1292 151.004 83.4628 150.82 83.8741L149.665 86.4507L149.52 86.7757H153.509C153.581 86.7755 153.652 86.7836 153.722 86.8L153.857 86.4995L154.368 85.359C154.571 84.9042 154.579 84.3901 154.39 83.9296C154.201 83.4691 153.831 83.0997 153.361 82.9026Z" fill="#6C63FF"/>
<path d="M156.947 80.2093C159.227 80.2093 161.076 78.4229 161.076 76.2192C161.076 74.0155 159.227 72.229 156.947 72.229C154.667 72.229 152.819 74.0155 152.819 76.2192C152.819 78.4229 154.667 80.2093 156.947 80.2093Z" fill="#FFB8B8"/>
<path d="M152.745 74.2585C154.7 75.4122 156.905 76.1143 159.187 76.3101L158.508 75.5237C159.002 75.7003 159.522 75.8002 160.049 75.8195C160.575 75.8116 161.127 75.6158 161.425 75.197C161.558 74.9888 161.637 74.7526 161.656 74.5085C161.674 74.2644 161.631 74.0196 161.53 73.795C161.323 73.3471 161.001 72.9579 160.595 72.6643C159.874 72.1133 159.023 71.7432 158.119 71.5869C157.214 71.4306 156.284 71.4931 155.41 71.7688C154.811 71.9418 154.274 72.2746 153.862 72.7288C153.47 73.1954 152.717 73.6112 152.917 74.1798L152.745 74.2585Z" fill="#2F2E41"/>
<path d="M157.641 71.0387C156.339 69.7625 154.764 68.7776 153.025 68.1535C151.909 67.754 150.695 67.5071 149.528 67.734C148.362 67.9609 147.258 68.741 146.933 69.8472C146.667 70.7519 146.942 71.7259 147.355 72.5775C147.768 73.429 148.319 74.2187 148.653 75.102C148.994 76.0034 149.096 76.9727 148.951 77.922C148.806 78.8713 148.418 79.7706 147.822 80.5381C147.226 81.3057 146.441 81.9173 145.539 82.3173C144.636 82.7174 143.645 82.8932 142.654 82.8289C143.8 82.9775 144.857 83.4981 145.977 83.7752C147.098 84.0524 148.42 84.0336 149.253 83.2578C150.134 82.437 150.151 81.1024 150.109 79.9205C150.045 78.1635 149.982 76.4065 149.919 74.6495C149.886 73.7535 149.859 72.8287 150.193 71.9924C150.528 71.1561 151.322 70.4238 152.25 70.4314C152.953 70.4371 153.575 70.8488 154.139 71.2547C154.703 71.6606 155.299 72.0938 156 72.1541C156.7 72.2145 157.499 71.7136 157.447 71.036L157.641 71.0387Z" fill="#2F2E41"/>
<path d="M161.027 87.6497L158.671 87.7114L158.499 89.3116L158.461 89.6821L154.77 91.2839L154.433 91.4301V94.278L154.77 94.1854L155.832 93.893H155.837L160.516 92.6047L160.57 92.5901C160.948 92.4845 161.281 92.2639 161.519 91.961C161.757 91.6581 161.888 91.289 161.891 90.9086L161.903 89.0192L161.913 87.627L161.027 87.6497Z" fill="#FFB8B8"/>
<path d="M161.794 84.485C161.762 83.9903 161.529 83.528 161.145 83.1997C160.761 82.8715 160.258 82.7041 159.746 82.7345C159.234 82.7648 158.756 82.9905 158.416 83.3617C158.076 83.733 157.903 84.2194 157.935 84.714L158.192 88.769C158.199 88.8757 158.23 88.9797 158.283 89.0734C158.336 89.1672 158.41 89.2485 158.499 89.3116C158.641 89.414 158.817 89.4641 158.994 89.453L160.795 89.3457L161.342 89.3132C161.441 89.3085 161.539 89.2843 161.628 89.2422C161.718 89.2 161.798 89.1407 161.863 89.0679C161.877 89.0525 161.891 89.0362 161.903 89.0192C162.01 88.881 162.062 88.7105 162.051 88.5383L161.794 84.485Z" fill="#6C63FF"/>
<path d="M154.986 95.3859H154.77V95.3648C154.659 95.3794 154.546 95.394 154.433 95.4103V95.7108H155.986C155.66 95.5971 155.327 95.4888 154.986 95.3859ZM154.986 95.3859H154.77V95.3648C154.659 95.3794 154.546 95.394 154.433 95.4103V95.7108H155.986C155.66 95.5971 155.327 95.4888 154.986 95.3859ZM156.534 95.3859H154.77V87.6691C154.769 87.4049 154.68 87.1481 154.515 86.9372C154.35 86.7262 154.119 86.5726 153.857 86.4994C153.744 86.4666 153.627 86.4501 153.509 86.4507H138.549C138.215 86.4511 137.895 86.5796 137.658 86.808C137.422 87.0364 137.289 87.3461 137.289 87.6691V95.6296C137.289 95.9527 137.422 96.2626 137.658 96.4911C137.894 96.7195 138.215 96.8479 138.549 96.848H156.534C156.721 96.8477 156.9 96.7811 157.039 96.661C157.177 96.5408 157.265 96.3755 157.286 96.1966C157.289 96.1702 157.291 96.1436 157.291 96.117C157.291 95.9232 157.211 95.7374 157.069 95.6004C156.927 95.4633 156.735 95.3862 156.534 95.3859ZM156.955 96.117C156.955 96.2247 156.91 96.328 156.832 96.4041C156.753 96.4803 156.646 96.5231 156.534 96.5231H138.549C138.304 96.523 138.069 96.4288 137.896 96.2613C137.722 96.0937 137.625 95.8665 137.625 95.6296V87.6691C137.625 87.4322 137.722 87.205 137.896 87.0375C138.069 86.8699 138.304 86.7758 138.549 86.7756H153.509C153.581 86.7754 153.652 86.7836 153.722 86.8C153.925 86.8467 154.105 86.9578 154.234 87.1155C154.363 87.2731 154.433 87.4682 154.433 87.6691V95.7108H156.534C156.637 95.711 156.735 95.747 156.812 95.8121C156.888 95.8773 156.938 95.9671 156.951 96.065C156.953 96.0829 156.955 96.0991 156.955 96.117ZM154.986 95.3859H154.77V95.3648C154.659 95.3794 154.546 95.394 154.433 95.4103V95.7108H155.986C155.66 95.5971 155.327 95.4888 154.986 95.3859Z" fill="white"/>
<path d="M146.029 92.6243C146.586 92.6243 147.037 92.1879 147.037 91.6496C147.037 91.1112 146.586 90.6748 146.029 90.6748C145.472 90.6748 145.02 91.1112 145.02 91.6496C145.02 92.1879 145.472 92.6243 146.029 92.6243Z" fill="#6C63FF"/>
<path d="M55.9482 11.5945C55.9444 11.6687 55.9468 11.7431 55.9551 11.817L50.6769 16.0984L49.1028 15.5476L47.9323 17.7349L51.3736 19.3181L57.144 13.0596C57.4353 13.1107 57.7359 13.0748 58.0057 12.9568C58.2755 12.8387 58.5017 12.6441 58.6542 12.3988C58.8068 12.1535 58.8784 11.8691 58.8597 11.5834C58.8409 11.2978 58.7327 11.0244 58.5493 10.7997C58.3658 10.575 58.116 10.4096 57.8329 10.3255C57.5499 10.2413 57.2471 10.2425 56.9647 10.3287C56.6823 10.415 56.4338 10.5823 56.2523 10.8084C56.0707 11.0345 55.9646 11.3087 55.9482 11.5945L55.9482 11.5945Z" fill="#FFB8B8"/>
<path d="M48.8692 18.7837L43.7721 17.0055C43.3042 16.8423 42.9225 16.5061 42.7111 16.0708C42.4996 15.6356 42.4757 15.137 42.6446 14.6847C42.8135 14.2325 43.1614 13.8636 43.6117 13.6592C44.062 13.4548 44.5779 13.4317 45.0458 13.595L50.1428 15.3732C50.2201 15.4001 50.291 15.4415 50.3517 15.4949C50.4124 15.5484 50.4616 15.6128 50.4965 15.6847C50.5314 15.7565 50.5513 15.8343 50.5551 15.9135C50.5589 15.9928 50.5465 16.072 50.5186 16.1467L49.6696 18.4204C49.6131 18.5711 49.4971 18.6939 49.347 18.762C49.197 18.8301 49.0251 18.8379 48.8692 18.7837V18.7837Z" fill="#CCCCCC"/>
<path d="M45.1363 36.1065L46.8396 36.1064L47.65 29.7559L45.1359 29.756L45.1363 36.1065Z" fill="#FFB8B8"/>
<path d="M50.1249 37.6353L44.7712 37.6355L44.7711 35.6363L48.0563 35.6361C48.6049 35.6361 49.1311 35.8467 49.519 36.2216C49.9069 36.5965 50.1249 37.105 50.1249 37.6353L50.1249 37.6353Z" fill="#2F2E41"/>
<path d="M40.9264 33.9799L42.3198 34.9269L46.762 30.1826L44.7055 28.7852L40.9264 33.9799Z" fill="#FFB8B8"/>
<path d="M43.9294 37.6787L39.5499 34.7026L40.7396 33.0671L43.427 34.8934C43.8758 35.1984 44.1808 35.6631 44.2751 36.1855C44.3693 36.7078 44.2449 37.245 43.9294 37.6787L43.9294 37.6787Z" fill="#2F2E41"/>
<path d="M48.8636 24.6673C48.8636 24.6673 53.1146 24.1825 52.3516 26.8487C51.5886 29.5149 43.0866 31.8175 43.0866 31.8175L48.8636 24.6673Z" fill="#FFB8B8"/>
<path d="M45.9377 11.0631C47.8224 11.0631 49.3503 9.58634 49.3503 7.76469C49.3503 5.94305 47.8224 4.46631 45.9377 4.46631C44.0529 4.46631 42.525 5.94305 42.525 7.76469C42.525 9.58634 44.0529 11.0631 45.9377 11.0631Z" fill="#FFB8B8"/>
<path d="M35.0545 31.2712C33.1126 29.0858 32.4331 25.7318 35.5299 22.9422C36.2947 22.2701 37.1607 21.7143 38.0982 21.2937L40.5941 14.5475C40.8533 13.843 41.3286 13.2317 41.9566 12.7951C42.5846 12.3585 43.3355 12.1174 44.1089 12.1039C44.8599 12.0725 45.6025 12.2667 46.2347 12.6597C46.867 13.0526 47.3578 13.6252 47.6399 14.2986C47.9447 14.9837 47.9795 15.7529 47.7379 16.4612C46.9949 18.6975 46.0192 20.8551 44.8258 22.9011L44.9548 23.899L51.2634 24.4409L51.2046 24.5334C51.1739 24.5816 48.0863 29.1283 44.1365 32.1462C42.786 33.1781 41.3894 33.6058 40.0714 33.6056C38.0727 33.6055 36.2548 32.622 35.0545 31.2712Z" fill="#CCCCCC"/>
<path d="M34.4591 8.79931C35.0629 8.10395 35.3218 7.19444 35.5302 6.3093C35.8598 4.90877 36.1148 3.46058 36.8472 2.21077C37.5794 0.960977 38.9252 -0.0746041 40.409 0.00422249C41.8843 0.082599 43.0771 1.22983 43.7102 2.53515C43.8636 2.4776 44.0277 2.45182 44.192 2.45947C44.3563 2.46713 44.5171 2.50805 44.6639 2.57959C45.1203 2.82112 45.2909 3.5076 44.911 3.85126C45.3105 3.6674 45.7456 3.56687 46.1879 3.55622C46.6302 3.54556 47.0699 3.62501 47.4784 3.7894C48.0037 4.00552 48.4571 4.35749 48.7887 4.80659C49.1204 5.25568 49.3175 5.78449 49.3582 6.33484C49.3742 6.55821 49.3424 6.78236 49.265 6.9934C49.1877 7.20444 49.0663 7.39787 48.9084 7.56171C48.2536 8.2132 47.3275 7.98847 46.5041 7.82251C45.7263 7.66576 44.779 7.62344 44.3409 8.33967C44.1682 8.63812 44.1199 8.989 44.2057 9.32071C44.3736 10.0357 44.9213 10.5337 45.4526 11.0104L45.5395 11.1664C43.6634 11.52 41.6147 10.2816 41.1226 8.49648C40.6304 6.71133 41.77 4.65189 43.5794 4.05637C43.459 4.06 43.3397 4.03248 43.234 3.97666C43.1282 3.92084 43.0398 3.83874 42.9779 3.73886C42.916 3.63897 42.8828 3.52491 42.8817 3.40847C42.8807 3.29203 42.9118 3.17742 42.9719 3.0765C42.471 2.80531 41.9042 2.66863 41.3303 2.68063C40.3956 2.7399 39.5868 3.38292 39.1004 4.15656C38.614 4.93021 38.3937 5.82817 38.1706 6.70739C37.9475 7.58662 37.7061 8.48266 37.186 9.23557C36.8257 9.75704 36.3444 10.1899 35.7803 10.4997C35.2163 10.8094 34.5851 10.9874 33.9372 11.0196C33.2894 11.0517 32.6427 10.937 32.0488 10.6847C31.4549 10.4323 30.9303 10.0493 30.5167 9.56621C31.1702 9.87249 31.9096 9.96333 32.6216 9.82482C33.3336 9.68631 33.9791 9.3261 34.4591 8.79931Z" fill="#2F2E41"/>
<path d="M59.5242 17.7881C62.2638 17.7881 64.4847 15.6416 64.4847 12.9937C64.4847 10.3458 62.2638 8.19922 59.5242 8.19922C56.7846 8.19922 54.5637 10.3458 54.5637 12.9937C54.5637 15.6416 56.7846 17.7881 59.5242 17.7881Z" fill="#6C63FF"/>
<path d="M59.3717 15.6901C59.3516 15.6707 59.3357 15.6477 59.3249 15.6224C59.3141 15.5972 59.3085 15.57 59.3086 15.5427V10.2363C59.3086 10.181 59.3313 10.128 59.3717 10.0889C59.4122 10.0498 59.467 10.0278 59.5242 10.0278C59.5814 10.0278 59.6363 10.0498 59.6767 10.0889C59.7171 10.128 59.7399 10.181 59.7399 10.2363V15.5427C59.7399 15.5839 59.7272 15.6242 59.7035 15.6585C59.6798 15.6927 59.6461 15.7194 59.6067 15.7352C59.5673 15.751 59.524 15.7551 59.4821 15.7471C59.4403 15.7391 59.4019 15.7192 59.3717 15.6901H59.3717Z" fill="white"/>
<path d="M56.6266 13.037C56.5964 13.0078 56.5759 12.9707 56.5676 12.9303C56.5593 12.8898 56.5636 12.8479 56.5799 12.8098C56.5962 12.7717 56.6238 12.7392 56.6593 12.7163C56.6948 12.6934 56.7365 12.6812 56.7791 12.6812H62.2693C62.3265 12.6812 62.3814 12.7031 62.4218 12.7422C62.4622 12.7813 62.485 12.8343 62.485 12.8896C62.485 12.9449 62.4622 12.9979 62.4218 13.037C62.3814 13.0761 62.3265 13.098 62.2693 13.098H56.7791C56.7508 13.0981 56.7227 13.0927 56.6966 13.0822C56.6704 13.0717 56.6466 13.0564 56.6266 13.037Z" fill="white"/>
<path d="M56.1192 16.2005C56.0831 16.2661 56.0525 16.3344 56.0276 16.4047L49.3671 18.1119L48.1845 16.9666L46.1631 18.4656L48.5818 21.3125L56.5573 18.0179C56.7986 18.1839 57.0864 18.2749 57.3825 18.2789C57.6786 18.2828 57.9689 18.1996 58.2149 18.0402C58.4609 17.8808 58.6508 17.6528 58.7595 17.3866C58.8681 17.1203 58.8903 16.8284 58.8231 16.5496C58.7559 16.2709 58.6025 16.0185 58.3833 15.8261C58.1641 15.6336 57.8894 15.5103 57.5959 15.4724C57.3024 15.4345 57.0039 15.4838 56.7401 15.6139C56.4763 15.744 56.2597 15.9486 56.1192 16.2005L56.1192 16.2005Z" fill="#FFB8B8"/>
<path d="M46.5497 19.8005L42.718 16.0971C42.5433 15.9288 42.4047 15.729 42.31 15.5089C42.2154 15.2888 42.1665 15.0528 42.1663 14.8145C42.1661 14.5762 42.2145 14.3401 42.3088 14.1199C42.4031 13.8996 42.5414 13.6995 42.7157 13.531C42.8901 13.3625 43.0971 13.2288 43.325 13.1377C43.5529 13.0466 43.7971 12.9998 44.0437 13C44.2903 13.0002 44.5344 13.0474 44.7621 13.1389C44.9898 13.2304 45.1966 13.3644 45.3707 13.5332L49.2024 17.2366C49.2605 17.2927 49.3066 17.3593 49.338 17.4327C49.3694 17.506 49.3856 17.5845 49.3856 17.6639C49.3856 17.7433 49.3694 17.8218 49.338 17.8951C49.3066 17.9685 49.2605 18.0351 49.2024 18.0912L47.434 19.8005C47.3166 19.9137 47.1576 19.9772 46.9918 19.9772C46.8261 19.9772 46.6671 19.9137 46.5497 19.8005V19.8005Z" fill="#CCCCCC"/>
</g>
<defs>
<clipPath id="clip0_83_3">
<rect width="166" height="116" fill="white"/>
</clipPath>
</defs>
</svg>
