<svg width="48" height="60" viewBox="0 0 48 60" fill="none" xmlns="http://www.w3.org/2000/svg">
<path d="M24 33C23.0866 32.9893 22.1919 33.2587 21.4363 33.7719C20.6807 34.2851 20.1004 35.0175 19.7736 35.8704C19.4468 36.7234 19.3892 37.656 19.6084 38.5427C19.8277 39.4294 20.3133 40.2276 21 40.83V45C21 45.7957 21.3161 46.5587 21.8787 47.1213C22.4413 47.6839 23.2044 48 24 48C24.7956 48 25.5587 47.6839 26.1213 47.1213C26.6839 46.5587 27 45.7957 27 45V40.83C27.6867 40.2276 28.1723 39.4294 28.3916 38.5427C28.6108 37.656 28.5532 36.7234 28.2264 35.8704C27.8996 35.0175 27.3193 34.2851 26.5637 33.7719C25.8081 33.2587 24.9134 32.9893 24 33ZM39 21V15C39 11.0218 37.4196 7.20644 34.6066 4.3934C31.7936 1.58035 27.9782 0 24 0C20.0218 0 16.2064 1.58035 13.3934 4.3934C10.5804 7.20644 9 11.0218 9 15V21C6.61305 21 4.32387 21.9482 2.63604 23.636C0.948212 25.3239 0 27.6131 0 30V51C0 53.3869 0.948212 55.6761 2.63604 57.364C4.32387 59.0518 6.61305 60 9 60H39C41.3869 60 43.6761 59.0518 45.364 57.364C47.0518 55.6761 48 53.3869 48 51V30C48 27.6131 47.0518 25.3239 45.364 23.636C43.6761 21.9482 41.3869 21 39 21ZM15 15C15 12.6131 15.9482 10.3239 17.636 8.63604C19.3239 6.94821 21.6131 6 24 6C26.3869 6 28.6761 6.94821 30.364 8.63604C32.0518 10.3239 33 12.6131 33 15V21H15V15ZM42 51C42 51.7957 41.6839 52.5587 41.1213 53.1213C40.5587 53.6839 39.7957 54 39 54H9C8.20435 54 7.44129 53.6839 6.87868 53.1213C6.31607 52.5587 6 51.7957 6 51V30C6 29.2044 6.31607 28.4413 6.87868 27.8787C7.44129 27.3161 8.20435 27 9 27H39C39.7957 27 40.5587 27.3161 41.1213 27.8787C41.6839 28.4413 42 29.2044 42 30V51Z" fill="#0099FF"/>
</svg>
