<svg width="57" height="51" viewBox="0 0 57 51" fill="none" xmlns="http://www.w3.org/2000/svg">
<path d="M30.2052 19.5894C35.6572 19.5894 40.077 15.6519 40.077 10.7947C40.077 5.93752 35.6572 2 30.2052 2C24.7531 2 20.3333 5.93752 20.3333 10.7947C20.3333 15.6519 24.7531 19.5894 30.2052 19.5894Z" fill="#2F88FF" stroke="black" stroke-width="4" stroke-linecap="round" stroke-linejoin="round"/>
<path d="M2 48.4867C2 37.3842 13.3651 28.384 27.3846 28.384" stroke="black" stroke-width="4" stroke-linecap="round" stroke-linejoin="round"/>
<path d="M44.3077 50.9999C51.3175 50.9999 57 45.9372 57 39.692C57 33.4468 51.3175 28.384 44.3077 28.384C37.2979 28.384 31.6154 33.4468 31.6154 39.692C31.6154 45.9372 37.2979 50.9999 44.3077 50.9999Z" fill="#2F88FF" stroke="black" stroke-width="4"/>
<path d="M42.8975 35.9233V40.9486H48.5383" stroke="white" stroke-width="4" stroke-linecap="round" stroke-linejoin="round"/>
</svg>
