<svg width="708" height="355" viewBox="0 0 708 355" fill="none" xmlns="http://www.w3.org/2000/svg">
<path d="M233.159 355C211.795 355 190.464 354.617 169.164 353.852C138.73 352.759 107.259 351.629 78.0085 335.402C57.5463 324.051 39.4238 305.84 25.6009 282.737C16.3618 267.077 9.58731 250.088 5.51535 232.367C-2.0804 200.104 -1.82168 166.488 6.26976 134.345C9.10531 123.325 13.0143 112.609 17.9407 102.352C39.2721 58.168 78.179 28.5088 124.686 20.9795C125.07 20.9296 125.458 20.9213 125.844 20.9547C126.053 20.9659 126.262 20.9779 126.474 20.969L126.748 20.882C127.449 20.6382 128.17 20.4532 128.902 20.3291C200.628 9.64871 276.452 31.2589 348.172 82.8217C403.626 122.695 477.119 144.167 572.849 148.463L574.208 148.534C600.857 150.065 626.635 161.054 648.757 180.315C670.593 199.326 686.987 224.689 696.169 253.665C697.298 257.198 698.332 260.875 699.244 264.594C700.093 268.051 700.033 271.668 699.07 275.094C698.107 278.521 696.274 281.639 693.749 284.147V284.154L693.51 284.399C692.937 284.97 692.333 285.517 691.715 286.027L690.989 286.626C684.872 291.666 680.04 295.648 674.257 298.741C670.4 300.79 666.297 302.339 662.049 303.351C638.721 309.04 615.03 314.314 591.636 319.028C546.203 328.191 499.573 335.75 453.041 341.493C380.092 350.49 306.66 355.001 233.159 355ZM125.3 22.5196C125.157 22.5183 125.015 22.528 124.873 22.5486C78.8012 30.0076 40.2625 59.3756 19.1426 103.122C14.2649 113.277 10.3946 123.887 7.58722 134.798C-0.430495 166.656 -0.685998 199.973 6.8422 231.951C10.8743 249.502 17.5831 266.328 26.733 281.838C40.4207 304.715 58.3578 322.743 78.6054 333.974C107.594 350.056 138.916 351.181 169.207 352.269C263.947 355.654 358.807 351.525 452.895 339.919C499.396 334.178 545.996 326.625 591.399 317.468C614.778 312.757 638.451 307.487 661.764 301.801C665.91 300.814 669.913 299.303 673.677 297.304C679.344 294.274 684.13 290.33 690.189 285.337L690.915 284.739C691.446 284.301 691.967 283.832 692.465 283.345L692.608 283.195C697.588 278.175 699.524 271.552 697.921 265.025V265.024C697.019 261.345 695.995 257.707 694.878 254.211C676.122 195.018 627.602 153.187 574.142 150.116L572.791 150.045C529.062 148.082 490.796 142.645 455.812 133.422C414.049 122.413 377.588 105.84 347.444 84.165C275.997 32.7998 200.49 11.27 129.077 21.8998C128.41 22.0149 127.754 22.1851 127.115 22.4086L126.622 22.5467C126.341 22.5592 126.061 22.5558 125.781 22.5366C125.616 22.5281 125.456 22.5196 125.3 22.5196H125.3Z" fill="#F0F0F0"/>
<path d="M221.15 115.663C219.172 113.765 217.15 103.182 214.625 102.107C216.512 106.279 215.142 107.384 215.132 111.963C215.155 114.563 214.852 117.156 214.228 119.68H171.456V86.2915C171.456 83.2915 172.046 80.3208 173.194 77.5491C174.342 74.7774 176.024 72.259 178.145 70.1376C180.266 68.0163 182.784 66.3336 185.555 65.1855C188.326 64.0375 191.296 63.4467 194.295 63.4468C195.44 63.4691 196.577 63.6357 197.68 63.9425C201.357 64.9353 204.708 66.8777 207.397 69.5747C210.086 72.2717 212.018 75.6286 213.001 79.3086C216.262 91.2298 221.447 111.073 221.15 115.663Z" fill="#2F2E41"/>
<path d="M173.966 156.737L173.987 130.713L158.692 132.08L164.09 148.493L161.564 189.749C160.339 190.024 159.22 190.65 158.344 191.55C157.468 192.45 156.873 193.585 156.631 194.818C156.389 196.05 156.511 197.326 156.982 198.491C157.453 199.655 158.252 200.657 159.282 201.375C160.313 202.093 161.53 202.495 162.785 202.534C164.04 202.572 165.279 202.243 166.351 201.589C167.423 200.935 168.281 199.983 168.822 198.849C169.362 197.716 169.561 196.449 169.394 195.204L173.966 156.737Z" fill="#FFB6B6"/>
<path d="M204.064 342.708L210.243 342.707L213.182 318.869H204.063L204.064 342.708Z" fill="#FFB6B6"/>
<path d="M201.971 339.659L211.739 339.076V343.261L221.025 349.676C221.484 349.993 221.829 350.448 222.011 350.975C222.193 351.503 222.202 352.074 222.036 352.606C221.87 353.138 221.538 353.604 221.089 353.934C220.64 354.265 220.097 354.443 219.54 354.443H207.911L205.907 350.302L205.124 354.443H200.74L201.971 339.659Z" fill="#2F2E41"/>
<path d="M168.337 342.708L174.516 342.707L177.455 318.869H168.336L168.337 342.708Z" fill="#FFB6B6"/>
<path d="M166.244 339.659L176.012 339.076V343.261L185.298 349.676C185.757 349.993 186.103 350.448 186.284 350.975C186.466 351.503 186.475 352.074 186.309 352.606C186.143 353.138 185.811 353.604 185.362 353.934C184.913 354.265 184.37 354.443 183.813 354.443H172.184L170.18 350.302L169.397 354.443H165.013L166.244 339.659Z" fill="#2F2E41"/>
<path d="M198.562 102.609L185.762 102.86L176.726 112.399L169.483 113.462C166.206 113.943 163.193 115.534 160.949 117.97C158.704 120.405 157.363 123.538 157.15 126.843L158.405 133.738H165.934L170.29 159.319C168.596 163.636 168.481 167.043 171.958 168.382L182.75 188.716L214.625 174.407C216.241 171.627 216.759 168.835 215.107 166.12L217.385 126.96H225.047C225.047 119.636 222.57 113.461 215.294 112.646C212.404 112.333 209.5 112.167 206.593 112.148L198.562 102.609Z" fill="#E6E6E6"/>
<path d="M214.625 174.407C214.625 174.407 183.503 179.93 171.958 168.382C171.958 168.382 170.786 170.372 169.019 173.673C168.511 174.622 167.53 175.265 166.938 176.415C166.4 177.46 165.015 178.745 164.428 179.93C163.956 180.884 164.713 182.13 164.222 183.16C158.31 195.564 151.402 213.061 152.883 224.615C153.838 232.066 155.811 249.403 157.888 268.025C158.05 269.48 156.736 271.348 156.899 272.815C157.053 274.198 158.684 275.178 158.838 276.564C158.94 277.484 157.801 278.423 157.903 279.342C158.014 280.35 159.368 281.339 159.479 282.344C162.325 308.056 164.93 332.061 164.93 332.061H179.487L182.234 277.235L179.989 257.25L185.26 216.833L192.538 255.242L193.474 276.859L201.166 333.065H214.625V278.654L215.629 275.827L214.625 272.202L215.629 268.296L214.625 264.042V174.407Z" fill="#2F2E41"/>
<path d="M202.491 95.1847C200.508 97.8193 197.687 99.6998 194.493 100.517C191.299 101.334 187.922 101.038 184.918 99.6788C181.915 98.3195 179.463 95.9776 177.968 93.0387C176.473 90.0998 176.023 86.7392 176.692 83.5102C177.361 80.2813 179.11 77.3766 181.65 75.2746C184.19 73.1725 187.37 71.9985 190.667 71.9457C193.963 71.8929 197.179 72.9646 199.785 74.9843C202.391 77.004 204.232 79.8512 205.004 83.0571C205.046 83.231 205.081 83.404 205.116 83.5835C205.523 85.5929 205.5 87.6661 205.048 89.6659C204.595 91.6657 203.724 93.5468 202.491 95.1847Z" fill="#FFB6B6"/>
<path d="M199.465 86.9041C199.158 85.3589 198.379 83.947 197.237 82.8623C197.349 84.343 197.144 85.8307 196.634 87.2254C192.818 87.5634 188.985 86.8039 185.586 85.0363C183.026 83.2992 179.768 83.4497 175.973 85.0363C175.973 83.1901 176.337 81.3619 177.043 79.6562C177.749 77.9505 178.784 76.4006 180.09 75.0951C181.395 73.7896 182.944 72.7541 184.65 72.0477C186.355 71.3413 188.183 70.9778 190.028 70.978H192.538C196.266 70.9787 199.84 72.4601 202.476 75.0964C205.112 77.7327 206.593 81.3081 206.593 85.0363C204.277 85.8674 201.892 86.4923 199.465 86.9041Z" fill="#2F2E41"/>
<path d="M89.6622 266.083C111.962 266.083 130.04 248.001 130.04 225.695C130.04 203.39 111.962 185.308 89.6622 185.308C67.362 185.308 49.2842 203.39 49.2842 225.695C49.2842 248.001 67.362 266.083 89.6622 266.083Z" fill="#F0F0F0"/>
<path d="M346.973 80.775C369.273 80.775 387.351 62.6929 387.351 40.3875C387.351 18.0821 369.273 0 346.973 0C324.673 0 306.595 18.0821 306.595 40.3875C306.595 62.6929 324.673 80.775 346.973 80.775Z" fill="#F0F0F0"/>
<path d="M667.622 272.418C689.922 272.418 708 254.335 708 232.03C708 209.725 689.922 191.643 667.622 191.643C645.322 191.643 627.244 209.725 627.244 232.03C627.244 254.335 645.322 272.418 667.622 272.418Z" fill="#F0F0F0"/>
<path d="M419.812 44.7918V136.373C419.812 138.276 419.062 140.101 417.724 141.453C416.386 142.806 414.569 143.575 412.668 143.595C412.641 143.598 412.615 143.599 412.589 143.598H401.932C393.406 143.598 385.228 140.21 379.199 134.18C373.17 128.149 369.783 119.97 369.783 111.441V44.7918C369.783 42.8756 370.544 41.038 371.899 39.683C373.253 38.3281 375.09 37.5669 377.006 37.5669H381.324C379.324 43.4038 406.474 45.8612 407.964 37.5669H412.589C414.504 37.5669 416.342 38.3281 417.696 39.683C419.051 41.038 419.812 42.8757 419.812 44.7918Z" fill="#0099FF"/>
<path d="M388.188 30.7188C388.188 30.4678 388.288 30.2271 388.466 30.0496C388.643 29.8721 388.884 29.7723 389.135 29.772H395.572C395.822 29.7727 396.062 29.8728 396.239 30.0503C396.416 30.2277 396.516 30.4682 396.516 30.7188C396.516 30.9695 396.416 31.2099 396.239 31.3874C396.062 31.5649 395.822 31.6649 395.572 31.6657H389.135C388.884 31.6654 388.643 31.5655 388.466 31.388C388.288 31.2105 388.188 30.9698 388.188 30.7188Z" fill="#3F3D56"/>
<path d="M414.8 155.215H374.093C370.935 155.211 367.907 153.955 365.673 151.721C363.44 149.487 362.184 146.459 362.18 143.3V79.2805C361.957 79.1199 361.775 78.9084 361.649 78.6634C361.524 78.4184 361.458 78.1471 361.459 77.8718V71.4333C361.458 71.1581 361.524 70.8868 361.649 70.6419C361.775 70.3969 361.957 70.1855 362.18 70.025V68.297C361.957 68.1365 361.775 67.925 361.649 67.6801C361.524 67.4352 361.458 67.1639 361.459 66.8887V60.4498C361.458 60.1746 361.524 59.9033 361.649 59.6583C361.775 59.4134 361.957 59.202 362.18 59.0415V55.9183C361.904 55.7701 361.674 55.5495 361.513 55.2804C361.353 55.0112 361.269 54.7035 361.269 54.3902V47.9516C361.269 47.6382 361.353 47.3305 361.513 47.0612C361.674 46.792 361.904 46.5714 362.18 46.4231V37.8652C362.184 34.7062 363.44 31.6776 365.673 29.4439C367.907 27.2102 370.934 25.9537 374.093 25.9502H414.8C417.958 25.9538 420.986 27.2102 423.219 29.444C425.453 31.6777 426.709 34.7063 426.712 37.8652V56.5196C426.927 56.6538 427.104 56.8404 427.226 57.0618C427.349 57.2831 427.414 57.5321 427.414 57.7852V70.0621C427.414 70.3153 427.349 70.5643 427.226 70.7857C427.104 71.0071 426.927 71.1938 426.712 71.3281V143.3C426.709 146.459 425.453 149.487 423.219 151.721C420.986 153.955 417.958 155.211 414.8 155.215ZM374.093 27.534C371.354 27.5371 368.729 28.6265 366.792 30.5633C364.856 32.5001 363.767 35.1261 363.764 37.8652V47.7703L363.002 47.7997C362.962 47.8011 362.925 47.8177 362.897 47.8459C362.869 47.8742 362.853 47.912 362.853 47.9517V54.3901C362.854 54.4297 362.87 54.4675 362.897 54.4957C362.925 54.524 362.962 54.5406 363.002 54.5421L363.764 54.5711V60.1535L363.161 60.302C363.128 60.3101 363.098 60.3289 363.077 60.3556C363.055 60.3824 363.043 60.4154 363.042 60.4497V66.8887C363.043 66.923 363.055 66.9561 363.077 66.9828C363.098 67.0095 363.128 67.0283 363.161 67.0364L363.764 67.1849V71.1371L363.161 71.2855C363.128 71.2936 363.098 71.3124 363.077 71.3392C363.055 71.3659 363.043 71.399 363.042 71.4333V77.8718C363.043 77.9062 363.055 77.9393 363.077 77.9661C363.098 77.9929 363.128 78.0118 363.161 78.0199L363.764 78.1684V143.3C363.767 146.039 364.856 148.665 366.792 150.602C368.729 152.538 371.354 153.628 374.093 153.631H414.8C417.539 153.628 420.164 152.538 422.1 150.601C424.037 148.665 425.126 146.039 425.129 143.3V69.972H425.83V57.8757H425.129V37.8652C425.126 35.1261 424.037 32.5002 422.1 30.5634C420.164 28.6266 417.539 27.5371 414.8 27.534L374.093 27.534Z" fill="#3F3D56"/>
<path d="M399.169 31.6657C399.692 31.6657 400.116 31.2418 400.116 30.7188C400.116 30.1959 399.692 29.772 399.169 29.772C398.646 29.772 398.222 30.1959 398.222 30.7188C398.222 31.2418 398.646 31.6657 399.169 31.6657Z" fill="#3F3D56"/>
<path d="M193.244 214.135H87.3218C85.8176 214.131 84.3761 213.532 83.3124 212.468C82.2487 211.405 81.6493 209.963 81.6452 208.458V156.834C81.6491 155.33 82.2483 153.888 83.3118 152.824C84.3754 151.76 85.8168 151.16 87.321 151.156H193.244C194.748 151.16 196.189 151.759 197.253 152.823C198.317 153.887 198.916 155.329 198.92 156.833V208.457C198.916 209.962 198.317 211.404 197.254 212.468C196.19 213.532 194.749 214.131 193.244 214.135Z" fill="white"/>
<path d="M193.244 214.135H87.3218C85.8176 214.131 84.3761 213.532 83.3124 212.468C82.2487 211.405 81.6493 209.963 81.6452 208.458V156.834C81.6491 155.33 82.2483 153.888 83.3118 152.824C84.3754 151.76 85.8168 151.16 87.321 151.156H193.244C194.748 151.16 196.189 151.759 197.253 152.823C198.317 153.887 198.916 155.329 198.92 156.833V208.457C198.916 209.962 198.317 211.404 197.254 212.468C196.19 213.532 194.749 214.131 193.244 214.135ZM87.3218 152.74C86.2371 152.743 85.1977 153.176 84.4308 153.943C83.6638 154.71 83.2317 155.75 83.2287 156.835V208.457C83.2318 209.542 83.6641 210.582 84.4312 211.349C85.1984 212.116 86.2378 212.549 87.3226 212.552H193.243C194.328 212.549 195.367 212.116 196.135 211.349C196.902 210.582 197.334 209.542 197.337 208.457V156.834C197.334 155.749 196.901 154.71 196.134 153.943C195.367 153.175 194.328 152.743 193.243 152.74L87.3218 152.74Z" fill="#3F3D56"/>
<path d="M145.96 206.506C125.07 206.506 103.287 206.306 95.1596 206.177C94.0903 206.155 93.0719 205.715 92.322 204.953C91.5721 204.19 91.15 203.164 91.1459 202.094V159.361C91.1463 158.978 91.2984 158.611 91.5688 158.34C91.8393 158.068 92.2062 157.915 92.5892 157.914H187.973C188.356 157.915 188.723 158.067 188.994 158.337C189.265 158.608 189.418 158.974 189.42 159.357V188.351C189.402 193.084 187.53 197.621 184.206 200.989C180.882 204.358 176.371 206.289 171.64 206.369C164.065 206.467 155.096 206.506 145.96 206.506Z" fill="#0099FF"/>
<path d="M182.311 185.687H96.1244C95.4027 185.685 94.6991 185.461 94.1093 185.045C93.5195 184.629 93.0719 184.042 92.8276 183.363L83.0725 155.989C82.8845 155.461 82.8259 154.896 82.9016 154.341C82.9774 153.785 83.1852 153.256 83.5077 152.798C83.8302 152.34 84.258 151.966 84.7551 151.707C85.2521 151.448 85.804 151.313 86.3643 151.312L194.096 151.162C194.608 151.161 195.114 151.273 195.579 151.489C196.043 151.705 196.454 152.021 196.783 152.413C197.112 152.806 197.351 153.266 197.483 153.761C197.615 154.256 197.637 154.773 197.548 155.278L197.631 155.313L197.321 156.035L197.318 156.042L185.526 183.565C185.257 184.196 184.809 184.733 184.237 185.11C183.666 185.487 182.996 185.688 182.311 185.687ZM194.101 152.745L86.3673 152.895C86.0604 152.896 85.7581 152.97 85.4858 153.112C85.2135 153.254 84.9791 153.458 84.8024 153.71C84.6257 153.961 84.5119 154.25 84.4704 154.554C84.4289 154.859 84.4609 155.168 84.5639 155.458L94.3186 182.83C94.4527 183.202 94.698 183.524 95.0213 183.752C95.3445 183.98 95.73 184.103 96.1255 184.104H182.311C182.686 184.104 183.052 183.994 183.365 183.787C183.678 183.581 183.923 183.287 184.07 182.942L195.863 155.418L196.443 155.667L195.863 155.418C195.988 155.127 196.039 154.808 196.011 154.492C195.982 154.176 195.876 153.872 195.702 153.607C195.527 153.342 195.289 153.125 195.01 152.975C194.731 152.824 194.418 152.745 194.101 152.745Z" fill="#3F3D56"/>
<path d="M140.122 191.646C143.849 191.646 146.871 188.624 146.871 184.896C146.871 181.168 143.849 178.146 140.122 178.146C136.395 178.146 133.373 181.168 133.373 184.896C133.373 188.624 136.395 191.646 140.122 191.646Z" fill="white"/>
<path d="M395.058 133.045C398.785 133.045 401.806 130.022 401.806 126.294C401.806 122.566 398.785 119.544 395.058 119.544C391.331 119.544 388.309 122.566 388.309 126.294C388.309 130.022 391.331 133.045 395.058 133.045Z" fill="white"/>
<path d="M650.307 224.206L632.279 206.404C631.402 205.531 630.36 204.839 629.215 204.369C628.07 203.899 626.843 203.659 625.605 203.664H625.542C624.294 203.668 623.06 203.919 621.91 204.403C620.761 204.887 619.718 205.594 618.844 206.483C614.813 210.564 612.52 216.048 612.448 221.784C612.376 227.52 614.529 233.06 618.456 237.241C618.646 237.447 618.844 237.645 619.042 237.843C620.138 238.933 621.348 239.902 622.652 240.734C626.216 243.037 630.372 244.256 634.615 244.242H634.749C637.662 244.232 640.543 243.644 643.227 242.513C645.911 241.382 648.344 239.731 650.386 237.653C652.155 235.858 653.14 233.434 653.125 230.913C653.111 228.393 652.097 225.981 650.307 224.206ZM649.262 236.536C645.915 239.909 641.508 242.025 636.783 242.527C632.059 243.029 627.306 241.886 623.325 239.292C622.186 238.539 621.123 237.677 620.15 236.719C616.266 232.881 614.064 227.658 614.03 222.197C613.996 216.736 616.132 211.486 619.968 207.6C620.697 206.857 621.567 206.266 622.527 205.862C623.486 205.458 624.516 205.25 625.558 205.248H625.605C626.636 205.244 627.657 205.444 628.611 205.835C629.565 206.227 630.432 206.802 631.163 207.529L649.191 225.339C650.683 226.815 651.529 228.823 651.542 230.923C651.555 233.022 650.735 235.041 649.262 236.536Z" fill="#3F3D56"/>
<path d="M591.157 165.779L573.129 147.969C571.355 146.208 568.955 145.222 566.455 145.229H566.4C565.151 145.234 563.915 145.486 562.764 145.971C561.613 146.456 560.57 147.165 559.694 148.056C556.362 151.441 554.201 155.805 553.528 160.507C552.856 165.21 553.707 170.005 555.957 174.189L555.965 174.197C556.893 175.908 558.046 177.487 559.393 178.893C559.543 179.067 559.718 179.241 559.892 179.415C564.032 183.526 569.632 185.827 575.465 185.814H575.608C578.52 185.802 581.402 185.213 584.086 184.08C586.77 182.948 589.203 181.295 591.244 179.217C592.121 178.329 592.814 177.277 593.284 176.121C593.754 174.965 593.992 173.728 593.984 172.48C593.975 171.232 593.722 169.998 593.237 168.848C592.752 167.698 592.045 166.655 591.157 165.779V165.779ZM590.112 178.109C588.217 180.037 585.959 181.571 583.468 182.621C580.977 183.672 578.303 184.219 575.6 184.23H575.465C571.405 184.229 567.437 183.026 564.058 180.775C560.68 178.523 558.043 175.323 556.478 171.576C554.913 167.829 554.491 163.702 555.265 159.716C556.039 155.73 557.973 152.062 560.826 149.172C562.302 147.68 564.31 146.834 566.409 146.82C568.508 146.807 570.526 147.627 572.021 149.101L590.049 166.903C591.54 168.382 592.384 170.392 592.396 172.493C592.408 174.593 591.587 176.613 590.112 178.109L590.112 178.109Z" fill="#3F3D56"/>
<path d="M651.459 229.803L631.584 210.169C630.281 208.884 628.522 208.169 626.692 208.18C624.862 208.192 623.112 208.929 621.824 210.229C620.214 211.856 618.94 213.785 618.076 215.905C617.211 218.025 616.773 220.295 616.786 222.584C616.799 224.873 617.263 227.138 618.151 229.248C619.039 231.358 620.335 233.272 621.964 234.881C623.592 236.49 625.522 237.762 627.642 238.624C629.763 239.487 632.032 239.923 634.321 239.907C636.61 239.892 638.874 239.425 640.982 238.534C643.091 237.643 645.003 236.345 646.61 234.714L651.459 229.803Z" fill="#0099FF"/>
<path d="M592.313 171.372L572.438 151.738C571.135 150.453 569.375 149.738 567.546 149.75C565.716 149.761 563.965 150.498 562.678 151.799C561.068 153.426 559.794 155.354 558.929 157.474C558.065 159.594 557.626 161.864 557.639 164.153C557.652 166.443 558.116 168.707 559.005 170.817C559.893 172.927 561.189 174.841 562.817 176.45C564.446 178.059 566.376 179.331 568.496 180.194C570.616 181.056 572.886 181.492 575.175 181.477C577.464 181.461 579.727 180.994 581.836 180.103C583.944 179.212 585.857 177.914 587.463 176.284L592.313 171.372Z" fill="#0099FF"/>
<path d="M629.619 242.032L629.144 243.283C626.911 242.436 624.747 241.586 622.652 240.733C585.536 225.584 567.817 207.853 555.965 174.197L555.957 174.189C555.395 172.605 554.849 170.984 554.318 169.327L555.569 168.923C555.987 170.517 556.599 172.054 557.39 173.5C558.039 175.345 558.707 177.143 559.393 178.893C570.533 207.299 586.961 223.533 618.456 237.241C620.039 237.93 621.662 238.614 623.325 239.292C625.256 240.55 627.383 241.476 629.619 242.032Z" fill="#3F3D56"/>
<path d="M572.799 184.373L571.686 185.5L612.807 226.123L613.92 224.996L572.799 184.373Z" fill="#3F3D56"/>
<path d="M224.664 150.712L224.685 124.688L209.391 126.055L214.788 142.469L195.195 172.176C193.97 172.451 192.852 173.077 191.976 173.977C191.1 174.877 190.505 176.012 190.263 177.245C190.021 178.477 190.143 179.754 190.614 180.918C191.084 182.082 191.884 183.084 192.914 183.802C193.944 184.52 195.161 184.923 196.416 184.961C197.671 184.999 198.91 184.671 199.982 184.016C201.054 183.362 201.913 182.41 202.453 181.277C202.993 180.143 203.192 178.876 203.026 177.632L224.664 150.712Z" fill="#FFB6B6"/>
</svg>
