<svg width="376" height="321" viewBox="0 0 376 321" fill="none" xmlns="http://www.w3.org/2000/svg">
<path d="M293.724 51.7571H268.177V268.872C268.177 272.279 267.504 275.652 266.196 278.799C264.888 281.946 262.972 284.806 260.555 287.214C258.139 289.623 255.27 291.534 252.113 292.837C248.956 294.141 245.572 294.812 242.155 294.812H46.834V295.06C46.834 298.467 47.5071 301.84 48.8148 304.987C50.1226 308.134 52.0394 310.994 54.4558 313.402C56.8722 315.811 59.7409 317.722 62.8981 319.025C66.0553 320.329 69.4391 321 72.8564 321H293.724C297.142 321 300.526 320.329 303.683 319.025C306.84 317.722 309.709 315.811 312.125 313.402C314.542 310.994 316.458 308.134 317.766 304.987C319.074 301.84 319.747 298.467 319.747 295.06V77.6969C319.747 74.2904 319.074 70.9173 317.766 67.7702C316.458 64.623 314.542 61.7634 312.125 59.3547C309.709 56.9459 306.84 55.0352 303.683 53.7316C300.526 52.428 297.142 51.7571 293.724 51.7571Z" fill="#F2F2F2"/>
<path d="M262.112 29.4847H10.8012C4.83587 29.4847 0 34.3053 0 40.2517V287.961C0 293.907 4.83587 298.728 10.8012 298.728H262.112C268.077 298.728 272.913 293.907 272.913 287.961V40.2517C272.913 34.3053 268.077 29.4847 262.112 29.4847Z" fill="#F2F2F2"/>
<path d="M26.0226 34.8192C20.5403 34.8192 15.2826 36.9901 11.4061 40.8544C7.52951 44.7186 5.35169 49.9596 5.35168 55.4245V272.788C5.35168 278.253 7.5295 283.494 11.4061 287.358C15.2826 291.222 20.5403 293.393 26.0226 293.393H166.986C222.532 293.393 267.561 248.507 267.561 193.137V55.4245C267.561 49.9596 265.383 44.7186 261.507 40.8544C257.63 36.9901 252.373 34.8192 246.89 34.8192H26.0226Z" fill="white"/>
<path d="M278.885 180.692C277.756 181.004 276.573 181.068 275.417 180.879C274.261 180.69 273.159 180.253 272.189 179.598C271.219 178.943 270.404 178.086 269.799 177.086C269.194 176.086 268.814 174.967 268.685 173.806L230.089 162.187L230.688 150.755L276.428 164.889C278.405 164.819 280.338 165.474 281.862 166.73C283.386 167.986 284.396 169.755 284.698 171.703C285.001 173.651 284.577 175.642 283.505 177.299C282.434 178.956 280.79 180.163 278.885 180.692V180.692Z" fill="#FFB6B6"/>
<path d="M148.94 121.722C145.032 118.471 150.755 102.358 149.212 97.6876C149.119 97.4049 149.032 97.1213 148.948 96.8369C148.774 96.2341 148.813 95.5898 149.059 95.0125L163.565 88.2108C167.345 89.7502 170.828 91.9328 173.858 94.6611L196.268 120.175L218.531 140.218L228.3 144.559L260.671 158.951L260.335 159.916L260.332 159.919L256.774 170.22L256.774 170.226L263.892 175.172L240.589 171.673L225.177 165.335L210.337 159.235C188.426 146.09 152.376 139.277 148.94 121.722Z" fill="#0282F8"/>
<path d="M252.223 239.959C251.795 240.153 251.318 240.211 250.856 240.126C250.394 240.041 249.969 239.816 249.64 239.482C249.31 239.148 249.092 238.721 249.013 238.259C248.935 237.797 249.002 237.323 249.203 236.899C249.172 236.665 249.149 236.497 249.117 236.264C249.079 236.225 249.041 236.186 249.003 236.148C245.173 232.275 238.548 234.959 238.481 240.397C238.421 245.223 237.893 250.245 239.112 254.836C239.651 256.865 240.54 258.785 241.738 260.512C234.151 253.326 228.202 244.599 224.296 234.921C223.318 232.491 222.477 230.009 221.777 227.486C221.205 225.417 220.726 223.327 220.339 221.217C218.252 209.761 218.92 197.976 222.289 186.828C224.848 183.739 226.394 179.943 226.722 175.951C226.844 174.514 226.757 173.067 226.463 171.655C226.113 171.851 222.836 166.653 222.976 166.197C222.148 165.624 221.071 165.605 220.204 165.07C215.889 162.409 212.302 164.607 212.356 170.545C208.929 174.422 210.329 178.023 214.35 180.417C216.909 181.94 218.332 184.815 220.747 186.575C220.674 186.829 220.591 187.079 220.518 187.333C219.177 191.985 218.296 196.757 217.889 201.58C216.67 196.898 213.668 191.869 210.838 188.986C207.615 185.7 203.209 183.608 199.134 181.281C194.24 178.487 188.295 182.935 189.808 188.351C189.823 188.403 189.838 188.456 189.853 188.508C190.345 188.574 190.835 188.656 191.322 188.756C191.935 188.885 192.494 189.195 192.927 189.647C193.36 190.098 193.646 190.669 193.748 191.285C193.849 191.901 193.762 192.534 193.497 193.099C193.232 193.665 192.802 194.138 192.263 194.456L192.208 194.488C192.931 195.874 193.759 197.204 194.685 198.465C196.593 213.229 206.044 215.108 216.829 211.054C217.114 211.08 217.393 211.109 217.675 211.129C217.95 217.679 219.079 224.165 221.033 230.424C222.197 234.112 223.659 237.701 225.403 241.154L225.334 241.035C222.96 237.368 219.39 234.63 215.226 233.283C209.063 231.339 201.951 232.558 195.723 231.504C192.724 230.997 190.402 234.128 191.941 236.743C191.966 236.785 191.99 236.826 192.015 236.868C192.883 236.873 193.749 236.931 194.609 237.044C195.101 237.109 195.591 237.192 196.078 237.292C196.691 237.421 197.25 237.731 197.683 238.182C198.116 238.633 198.402 239.205 198.504 239.821C198.605 240.437 198.518 241.069 198.253 241.635C197.988 242.2 197.558 242.673 197.019 242.991L196.964 243.024C196.924 243.047 196.89 243.067 196.85 243.09C199.343 245.613 202.253 247.69 205.453 249.229C212.318 260.04 222.082 257.425 230.684 250.042L230.69 250.04C233.689 254.341 237.128 258.319 240.951 261.912L257.844 255.163C257.829 254.952 257.806 254.737 257.786 254.528C256.261 255.251 254.654 255.784 253 256.118C253.637 254.084 254.269 252.038 254.906 250.004C254.922 249.965 254.936 249.924 254.948 249.882C255.268 248.844 255.597 247.809 255.918 246.77L255.917 246.769C254.984 244.351 253.743 242.062 252.223 239.959L252.223 239.959Z" fill="#F2F2F2"/>
<path d="M159.373 254.778L159.179 254.537C158.621 250.962 159.373 254.778 159.373 254.778Z" fill="#2F2E41"/>
<path d="M169.267 293.342H115.149C110.945 282.923 108.026 275.471 108.026 275.471C108.026 275.471 107.317 282.77 106.306 293.342H57.3799C56.922 264.613 56.281 235.116 56.0699 225.747L149.981 227.833L159.321 239.641C159.353 239.838 159.385 240.055 159.425 240.301C159.803 242.7 164.888 268.454 169.267 293.342Z" fill="#2F2E41"/>
<path d="M168.447 91.2844L168.438 91.2677C168.14 90.7154 167.659 90.2824 167.078 90.0419C161.136 85.4463 154.63 83.3514 147.329 84.7841C146.134 81.1769 145.019 81.1769 145.019 81.1769L129.183 75.9633L126.905 62.0941L87.8871 60.7776L84.3411 78.085C84.3411 78.085 62.5319 81.9821 62.5319 84.8002C62.5319 87.6184 66.1668 87.6184 62.5319 87.6184C58.8971 87.6184 57.9237 84.3976 54.7776 87.6184C54.508 87.889 54.2235 88.1443 53.9254 88.3833C53.8891 88.4155 53.8487 88.4437 53.8123 88.4759C50.2567 91.2637 47.4625 94.8991 45.6873 99.0467C43.9122 103.194 43.2132 107.721 43.6549 112.209L50.3632 178.729L57.5239 249.71L155.52 253.776L162.083 193.375L168.758 92.8789C168.818 92.3283 168.709 91.7726 168.447 91.2844Z" fill="#0282F8"/>
<path d="M7.58005 269.668C8.13955 271.071 8.70416 272.099 9.27381 272.608L199.328 273.01C199.898 272.502 200.463 271.474 201.022 270.071C207.669 253.401 195.13 235.324 177.134 235.29L31.478 235.015C13.5067 234.981 0.941716 253.021 7.58005 269.668Z" fill="white"/>
<path d="M199.482 273.413L199.328 273.413L9.11909 273.01L9.00451 272.908C8.41211 272.379 7.82346 271.368 7.20483 269.817C5.63147 265.939 5.05114 261.731 5.51618 257.574C5.98122 253.416 7.477 249.439 9.86866 246.002C12.2566 242.493 15.47 239.621 19.2283 237.635C22.9865 235.65 27.1753 234.612 31.4287 234.612H31.4788L177.135 234.888C181.404 234.896 185.605 235.946 189.373 237.945C193.142 239.945 196.361 242.834 198.751 246.359C201.14 249.807 202.632 253.792 203.094 257.957C203.556 262.121 202.973 266.335 201.398 270.22C200.779 271.771 200.19 272.781 199.598 273.31L199.482 273.413ZM21.972 272.168L183.123 271.681C194.498 271.646 202.865 260.701 199.495 249.871C199.176 248.788 198.701 247.757 198.083 246.811C195.766 243.394 192.646 240.594 188.994 238.656C185.342 236.719 181.27 235.701 177.133 235.693L31.4772 235.418H31.4287C29.5792 235.479 27.7553 235.868 26.0423 236.565C16.6338 240.114 10.3424 249.035 9.81924 259.049C9.81258 259.177 9.80594 259.304 9.79933 259.432C9.71719 261.02 9.94973 262.609 10.4837 264.108C11.0176 265.607 11.8425 266.987 12.9112 268.168C13.98 269.349 15.2716 270.309 16.7125 270.992C18.1533 271.676 19.7151 272.07 21.3087 272.152C21.5296 272.163 21.7507 272.168 21.972 272.168L21.972 272.168Z" fill="#E6E6E6"/>
<path d="M236.29 127.404C234.209 118.689 234.556 110.106 238.12 101.697C238.158 101.177 238.401 100.693 238.796 100.351C239.192 100.009 239.707 99.8374 240.229 99.8737L259.705 101.251C260.227 101.289 260.713 101.531 261.056 101.925C261.398 102.319 261.571 102.833 261.534 103.353L259.704 129.06C259.667 129.58 259.423 130.064 259.028 130.406C258.633 130.748 258.118 130.92 257.596 130.883L238.12 129.506C237.598 129.468 237.112 129.226 236.769 128.832C236.426 128.438 236.254 127.924 236.29 127.404Z" fill="#F2F2F2"/>
<path d="M238.337 119.745C236.671 115.451 237.736 109.545 239.514 103.218C239.549 102.731 239.776 102.278 240.147 101.957C240.517 101.637 240.999 101.477 241.488 101.511L258.226 102.695C258.715 102.73 259.17 102.957 259.491 103.326C259.812 103.695 259.974 104.176 259.939 104.663L258.311 127.539C258.276 128.026 258.048 128.479 257.678 128.799C257.308 129.12 256.825 129.28 256.336 129.246L245.967 128.513C243.79 128.356 241.764 127.345 240.334 125.702C238.903 124.058 238.185 121.916 238.337 119.745Z" fill="white"/>
<path d="M249.925 120.866C249.414 120.778 248.903 120.691 248.392 120.603C248.627 120.049 248.763 119.458 248.793 118.857C249.035 115.639 249.06 112.391 249.189 109.167C249.185 109.049 249.148 108.935 249.081 108.838C249.014 108.741 248.92 108.665 248.81 108.62C248.701 108.575 248.581 108.562 248.465 108.583C248.348 108.605 248.241 108.659 248.155 108.74C246.871 109.8 245.587 110.86 244.302 111.921C243.701 112.417 244.563 113.267 245.159 112.775C246.081 112.014 247.002 111.253 247.924 110.492C247.839 112.604 247.755 114.717 247.67 116.829C247.63 117.843 247.753 119.074 247.337 120.027C247.28 120.156 247.206 120.276 247.116 120.385C246.55 120.288 245.984 120.191 245.418 120.094C245.011 120.024 244.493 120.363 244.673 120.837C245.062 121.867 246.211 122.192 247.196 121.795C247.282 121.756 247.366 121.712 247.447 121.661L249.603 122.03C250.366 122.161 250.694 120.997 249.925 120.866Z" fill="#0282F8"/>
<path d="M349.375 213.961C347.293 205.247 347.641 196.663 351.205 188.254C351.242 187.734 351.485 187.25 351.881 186.908C352.276 186.566 352.791 186.394 353.313 186.431L372.789 187.808C373.311 187.846 373.797 188.088 374.14 188.482C374.483 188.876 374.655 189.39 374.619 189.91L372.789 215.617C372.751 216.137 372.508 216.622 372.113 216.963C371.717 217.305 371.202 217.477 370.68 217.44L351.204 216.063C350.682 216.025 350.196 215.783 349.853 215.389C349.511 214.995 349.338 214.481 349.375 213.961Z" fill="#F2F2F2"/>
<path d="M351.422 206.302C349.756 202.008 350.821 196.102 352.598 189.775C352.633 189.288 352.861 188.835 353.231 188.514C353.601 188.194 354.084 188.034 354.573 188.068L371.311 189.252C371.8 189.287 372.255 189.514 372.576 189.883C372.897 190.252 373.058 190.733 373.024 191.22L371.395 214.096C371.36 214.583 371.133 215.036 370.762 215.356C370.392 215.676 369.91 215.837 369.421 215.803L359.052 215.07C356.875 214.913 354.848 213.902 353.418 212.259C351.987 210.615 351.27 208.473 351.422 206.302Z" fill="white"/>
<path d="M362.348 201.941C362.571 201.837 362.781 201.71 362.976 201.561C363.495 201.134 363.879 200.567 364.081 199.927C364.283 199.287 364.294 198.603 364.113 197.957C363.328 195.081 359.877 195.063 357.494 195.41C356.725 195.521 357.052 196.685 357.816 196.574C359.422 196.341 361.943 196.152 362.806 197.901C363.003 198.311 363.073 198.771 363.007 199.222C362.941 199.672 362.743 200.093 362.437 200.431C362.071 200.797 361.589 201.025 361.073 201.077C360.573 200.861 360.031 200.76 359.487 200.782C358.925 200.809 358.612 201.623 359.181 201.907C359.684 202.157 360.238 202.288 360.8 202.288C361.266 202.512 361.656 202.869 361.919 203.313C362.183 203.757 362.309 204.268 362.281 204.783C362.228 205.135 362.105 205.472 361.921 205.776C361.737 206.081 361.494 206.346 361.207 206.557C360.92 206.767 360.594 206.92 360.248 207.005C359.902 207.09 359.542 207.107 359.19 207.053L359.175 207.051C358.413 206.898 358.088 208.062 358.853 208.216C359.879 208.408 360.94 208.187 361.802 207.6C362.665 207.013 363.258 206.108 363.451 205.085C363.462 205.03 363.471 204.974 363.479 204.918C363.527 204.369 363.451 203.816 363.255 203.301C363.059 202.785 362.749 202.32 362.348 201.941Z" fill="#0282F8"/>
<path d="M327.566 76.2748C325.484 67.5604 325.831 58.9772 329.396 50.5679C329.433 50.0476 329.676 49.5635 330.072 49.2217C330.467 48.8799 330.982 48.7083 331.504 48.7447L350.98 50.1222C351.502 50.1597 351.988 50.4021 352.331 50.7961C352.674 51.1901 352.846 51.7036 352.809 52.224L350.979 77.9309C350.942 78.4512 350.699 78.9353 350.303 79.2771C349.908 79.6189 349.393 79.7905 348.871 79.7542L329.395 78.3766C328.873 78.3391 328.387 78.0967 328.044 77.7027C327.701 77.3087 327.529 76.7952 327.566 76.2748Z" fill="#F2F2F2"/>
<path d="M329.612 68.616C327.947 64.3217 329.012 58.4156 330.789 52.0892C330.824 51.602 331.052 51.1485 331.422 50.8284C331.792 50.5083 332.275 50.3477 332.763 50.3817L349.502 51.5656C349.99 51.6007 350.445 51.8277 350.766 52.1967C351.088 52.5657 351.249 53.0466 351.215 53.534L349.586 76.4097C349.551 76.8969 349.323 77.3503 348.953 77.6705C348.583 77.9906 348.1 78.1512 347.612 78.1172L337.243 77.3838C335.065 77.2273 333.039 76.2163 331.609 74.5726C330.178 72.9289 329.46 70.7867 329.612 68.616Z" fill="white"/>
<path d="M339.905 57.1042C338.19 56.5107 336.282 57.8633 336.087 59.617C335.866 61.6047 338.011 63.1739 339.868 62.6337C340.615 62.4164 340.297 61.2505 339.546 61.469C338.185 61.865 336.733 60.4 337.516 59.0902C337.693 58.774 337.964 58.5194 338.29 58.3601C338.617 58.2008 338.984 58.1444 339.344 58.1985C339.649 58.2828 339.93 58.4372 340.165 58.6494C340.399 58.8615 340.581 59.1255 340.694 59.4202C341.362 60.9204 340.568 62.4435 339.516 63.5339C338.917 64.1558 338.213 64.6391 337.566 65.2059C337.252 65.4427 336.991 65.7425 336.8 66.086C336.609 66.4295 336.492 66.8091 336.457 67.2004C336.474 67.6403 336.611 68.0673 336.854 68.435C337.097 68.8027 337.436 69.0973 337.835 69.2867C338.868 69.8163 340.043 69.6479 341.142 69.4717C341.91 69.3485 341.584 68.1845 340.82 68.307C339.859 68.4612 338.42 68.6948 337.811 67.6958C337.289 66.8403 338.364 66.0891 338.949 65.634C340.421 64.4903 341.909 63.0133 342.13 61.0686C342.311 59.4756 341.498 57.6552 339.905 57.1042Z" fill="#0282F8"/>
<path d="M44.3436 174.777L53.9397 179.085C49.4284 182.732 42.5585 187.64 35.83 189.91L25.1395 182.644C21.1573 167.337 23.5967 151.564 28.3826 138.226C31.0342 130.814 34.5505 123.739 38.859 117.146C38.4177 112.658 39.1169 108.132 40.892 103.984C42.6671 99.8368 45.4611 96.2014 49.0165 93.4133C49.0568 93.3811 49.0932 93.3529 49.1295 93.3207C52.6707 96.384 55.5634 100.121 57.6383 104.312C59.7132 108.503 60.9286 113.065 61.2134 117.73L61.4275 121.256L61.8556 128.205L62.942 145.951L50.0585 165.92L44.3436 174.777Z" fill="#0282F8"/>
<path d="M71.9509 250.538C72.063 250.678 72.2056 250.791 72.3679 250.869C72.5302 250.946 72.7079 250.986 72.8878 250.985H138.453C138.632 250.985 138.809 250.944 138.971 250.867C139.133 250.79 139.275 250.679 139.388 250.54C139.501 250.401 139.582 250.239 139.624 250.065C139.666 249.891 139.669 249.71 139.632 249.535L138.614 244.716C138.572 244.52 138.481 244.337 138.35 244.184C138.219 244.032 138.051 243.914 137.863 243.843C137.727 243.789 137.581 243.762 137.435 243.762H73.9016C73.7551 243.762 73.6098 243.789 73.4735 243.843C73.2851 243.914 73.1177 244.032 72.9865 244.184C72.8553 244.337 72.7644 244.52 72.7223 244.716L71.7045 249.535C71.6683 249.71 71.6716 249.891 71.7142 250.064C71.7568 250.238 71.8377 250.399 71.9509 250.538Z" fill="#2F2E41"/>
<path d="M46.8502 142.66V218.049C46.8509 219.009 47.2341 219.931 47.9156 220.61C48.5971 221.289 49.5212 221.671 50.485 221.672H162.56C163.524 221.671 164.448 221.289 165.129 220.61C165.811 219.931 166.194 219.01 166.195 218.049V142.66C166.192 141.7 165.809 140.78 165.127 140.101C164.446 139.423 163.523 139.042 162.56 139.04H50.485C49.5221 139.042 48.5989 139.423 47.9176 140.101C47.2363 140.78 46.8525 141.7 46.8502 142.66Z" fill="#3F3D56"/>
<path d="M92.4999 206.881V248.171H121.518V206.881C121.519 206.584 121.424 206.295 121.247 206.055C121.07 205.816 120.821 205.64 120.537 205.552C120.403 205.508 120.262 205.486 120.121 205.488H93.9013C93.5304 205.487 93.1743 205.633 92.9115 205.894C92.6487 206.155 92.5006 206.51 92.4999 206.879V206.881ZM103.825 221.068C103.832 220.254 104.162 219.476 104.742 218.903C105.322 218.331 106.106 218.009 106.922 218.009C107.739 218.009 108.522 218.331 109.102 218.903C109.682 219.476 110.012 220.254 110.02 221.068V225.859C110.016 226.675 109.688 227.457 109.107 228.032C108.527 228.608 107.741 228.931 106.922 228.931C106.103 228.931 105.318 228.608 104.737 228.032C104.157 227.457 103.829 226.675 103.825 225.859V221.068Z" fill="#2F2E41"/>
<path d="M109.436 59.2319C123.382 59.2319 134.688 47.9617 134.688 34.0593C134.688 20.1568 123.382 8.8866 109.436 8.8866C95.4889 8.8866 84.1829 20.1568 84.1829 34.0593C84.1829 47.9617 95.4889 59.2319 109.436 59.2319Z" fill="#FFB6B6"/>
<path d="M139.672 29.6555C136.949 30.4981 134.324 30.9947 132.554 28.7686C130.783 26.5425 131.246 23.9971 128.612 22.924C126.486 22.0548 124.03 22.4273 121.886 23.2344C121.504 23.3763 121.13 23.5359 120.765 23.6955C120.561 23.5182 120.356 23.3497 120.133 23.19C118.46 22.0034 116.393 21.5019 114.359 21.7888C115.846 22.5045 117.069 23.668 117.856 25.1146C117.126 25.4782 116.342 25.75 115.64 26.1523C105.996 31.6793 95.2714 33.9053 96.1467 24.68C99.0649 32.3428 96.7962 35.0744 92.5166 42.072L92.3476 42.48C92.7746 40.6441 89.7721 40.5571 87.1783 41.1851C85.2626 41.649 86.5024 46.1007 88.9577 49.1672C83.4682 40.9279 75.2461 28.3482 82.356 22.0371C83.4047 21.1062 84.0627 19.793 84.2511 16.4319C84.3628 14.439 87.7655 13.9397 89.5627 14.8266C89.8228 11.8302 90.8734 8.95561 92.6079 6.49459C94.3423 4.03357 96.6989 2.07366 99.4386 0.813677C104.937 -1.62528 110.529 2.12657 116.503 2.85352C119.818 3.25687 122.332 4.58769 122.464 8.8046C122.553 11.6128 126.797 12.6182 129.573 13.1149C131.335 13.4253 133.319 13.2391 134.725 14.3477C136.353 15.6337 136.371 17.8953 136.362 20.0682C134.769 20.0229 133.198 20.4521 131.851 21.3009C133.5 21.3422 135.094 21.9009 136.406 22.8974C136.432 22.9129 136.455 22.9307 136.478 22.9506C136.958 26.6046 136.762 27.3762 139.672 29.6555Z" fill="#2F2E41"/>
<path d="M157.884 152.397C167.752 149.34 178.315 152.646 188.237 149.825C190.519 149.202 192.676 148.192 194.614 146.839C196.266 145.59 197.818 144.213 199.255 142.722C202.239 139.779 205.481 136.69 209.965 136.724C215.869 136.769 220.403 141.141 224.339 145.002C224.895 145.547 225.753 144.694 225.196 144.148C221.579 140.6 217.672 136.857 212.524 135.798C210.215 135.288 207.804 135.487 205.611 136.371C203.708 137.233 201.97 138.417 200.474 139.872C198.889 141.321 197.427 142.899 195.82 144.326C194.143 145.847 192.21 147.063 190.111 147.918C185.562 149.723 180.573 149.941 175.736 149.888C169.663 149.822 163.445 149.41 157.562 151.232C156.82 151.462 157.137 152.629 157.884 152.397H157.884Z" fill="#3F3D56"/>
<path d="M226.503 136.862L229.536 142.192L231.004 144.771C231.265 145.23 231.533 145.685 231.787 146.147C231.943 146.431 232.284 146.943 231.958 147.212C231.672 147.351 231.351 147.401 231.036 147.355C230.502 147.356 229.966 147.344 229.432 147.339L226.424 147.309L220.207 147.246C220.05 147.251 219.901 147.317 219.792 147.43C219.682 147.542 219.621 147.693 219.621 147.85C219.621 148.006 219.682 148.157 219.792 148.269C219.901 148.382 220.05 148.448 220.207 148.454C223.816 148.49 227.427 148.566 231.036 148.563C231.666 148.623 232.296 148.451 232.807 148.08C233.058 147.831 233.223 147.511 233.281 147.163C233.339 146.816 233.285 146.459 233.129 146.144C232.773 145.37 232.363 144.621 231.903 143.904L230.583 141.583L227.549 136.252C227.465 136.12 227.333 136.025 227.18 135.988C227.028 135.951 226.866 135.974 226.731 136.053C226.595 136.132 226.495 136.261 226.453 136.412C226.41 136.563 226.428 136.724 226.503 136.862V136.862Z" fill="#3F3D56"/>
<path d="M266.595 149.923H238.716C238.563 149.923 238.412 149.894 238.27 149.836C238.129 149.779 238.001 149.694 237.892 149.586C237.784 149.479 237.698 149.352 237.639 149.211C237.58 149.071 237.55 148.92 237.549 148.768C237.549 148.616 237.578 148.465 237.636 148.324C237.694 148.184 237.78 148.056 237.887 147.948C237.995 147.84 238.123 147.754 238.264 147.696C238.405 147.637 238.556 147.607 238.709 147.607C238.711 147.607 238.713 147.607 238.716 147.607H266.595C266.748 147.606 266.899 147.635 267.04 147.693C267.182 147.751 267.31 147.836 267.419 147.943C267.527 148.05 267.613 148.178 267.672 148.318C267.731 148.458 267.761 148.609 267.762 148.761C267.762 148.913 267.733 149.064 267.675 149.205C267.616 149.346 267.531 149.474 267.424 149.581C267.316 149.689 267.188 149.775 267.047 149.834C266.906 149.892 266.755 149.922 266.602 149.923C266.6 149.923 266.598 149.923 266.595 149.923Z" fill="#E6E6E6"/>
<path d="M266.595 168.574H238.716C238.563 168.574 238.412 168.545 238.271 168.487C238.13 168.429 238.001 168.345 237.893 168.237C237.785 168.13 237.699 168.003 237.64 167.862C237.581 167.722 237.551 167.572 237.55 167.42C237.55 167.267 237.58 167.117 237.638 166.976C237.695 166.835 237.781 166.708 237.888 166.6C237.996 166.492 238.124 166.406 238.264 166.348C238.405 166.289 238.556 166.259 238.709 166.258C238.711 166.258 238.713 166.258 238.716 166.258H266.595C266.748 166.258 266.899 166.287 267.04 166.345C267.181 166.403 267.309 166.488 267.418 166.595C267.526 166.702 267.612 166.829 267.671 166.97C267.729 167.11 267.76 167.26 267.76 167.413C267.761 167.565 267.731 167.715 267.673 167.856C267.615 167.997 267.53 168.125 267.423 168.232C267.315 168.34 267.187 168.426 267.047 168.485C266.906 168.543 266.755 168.574 266.602 168.574C266.6 168.574 266.598 168.574 266.595 168.574Z" fill="#E6E6E6"/>
<path d="M293.964 159.248H238.716C238.563 159.249 238.412 159.22 238.27 159.162C238.129 159.104 238.001 159.019 237.892 158.912C237.784 158.805 237.698 158.677 237.639 158.537C237.58 158.397 237.55 158.246 237.549 158.094C237.549 157.942 237.578 157.791 237.636 157.65C237.694 157.509 237.78 157.381 237.887 157.274C237.995 157.166 238.123 157.08 238.264 157.021C238.405 156.963 238.556 156.933 238.709 156.932C238.711 156.932 238.713 156.932 238.716 156.932H293.964C294.116 156.932 294.268 156.961 294.409 157.019C294.55 157.077 294.679 157.161 294.787 157.269C294.895 157.376 294.982 157.503 295.04 157.644C295.099 157.784 295.13 157.935 295.13 158.087C295.131 158.239 295.101 158.39 295.043 158.531C294.985 158.671 294.9 158.799 294.792 158.907C294.684 159.015 294.556 159.101 294.416 159.159C294.275 159.218 294.124 159.248 293.971 159.248C293.969 159.248 293.966 159.248 293.964 159.248Z" fill="#E6E6E6"/>
<path d="M256.974 138.986C263.108 130.697 273.583 127.123 279.9 118.992C281.369 117.143 282.507 115.056 283.264 112.821C283.853 110.839 284.285 108.814 284.557 106.764C285.213 102.631 285.988 98.2274 289.621 95.6072C294.405 92.1568 300.656 93.0024 306.121 93.789C306.277 93.8074 306.435 93.7646 306.56 93.6696C306.685 93.5747 306.768 93.435 306.792 93.2801C306.815 93.1252 306.778 92.9671 306.687 92.8393C306.596 92.7115 306.459 92.6239 306.304 92.5951C301.282 91.8723 295.91 91.164 291.133 93.3504C288.969 94.3027 287.146 95.8867 285.904 97.8934C284.883 99.7112 284.186 101.692 283.846 103.747C283.43 105.851 283.189 107.986 282.742 110.084C282.294 112.3 281.46 114.42 280.277 116.349C277.685 120.489 273.795 123.61 269.866 126.425C264.934 129.957 259.68 133.296 256.023 138.238C255.561 138.862 256.509 139.614 256.974 138.986L256.974 138.986Z" fill="#3F3D56"/>
<path d="M303.028 85.9534L308.639 88.4568L311.354 89.6681C311.837 89.8834 312.323 90.0918 312.802 90.3142C313.097 90.4508 313.676 90.6621 313.573 91.071C313.504 91.3495 313.129 91.5736 312.916 91.7309C312.485 92.0476 312.047 92.3539 311.613 92.6652L309.172 94.417L304.125 98.0372C304.002 98.1343 303.921 98.2754 303.9 98.4306C303.88 98.5858 303.92 98.743 304.013 98.8692C304.106 98.9954 304.244 99.0806 304.399 99.1069C304.554 99.1333 304.713 99.0986 304.843 99.0103C307.773 96.9087 310.727 94.8376 313.633 92.704C314.176 92.3806 314.582 91.8701 314.773 91.2691C314.827 90.9211 314.77 90.565 314.61 90.251C314.45 89.937 314.195 89.6812 313.882 89.5195C313.135 89.106 312.36 88.7447 311.563 88.4381L309.12 87.3479L303.509 84.8445C303.362 84.7872 303.199 84.7889 303.054 84.8491C302.909 84.9094 302.793 85.0235 302.731 85.1674C302.668 85.3112 302.664 85.4736 302.72 85.6203C302.775 85.7669 302.886 85.8864 303.028 85.9534L303.028 85.9534Z" fill="#3F3D56"/>
<path d="M353.428 92.3521H325.548C325.396 92.3527 325.244 92.3233 325.103 92.2656C324.962 92.208 324.833 92.1231 324.725 92.0159C324.617 91.9086 324.531 91.7812 324.472 91.6408C324.413 91.5004 324.382 91.3498 324.382 91.1976C324.381 91.0454 324.411 90.8947 324.469 90.7539C324.527 90.6132 324.612 90.4852 324.72 90.3773C324.828 90.2694 324.956 90.1838 325.097 90.1253C325.238 90.0667 325.389 90.0364 325.541 90.0361C325.544 90.0361 325.546 90.0361 325.548 90.0361H353.428C353.581 90.0355 353.732 90.0649 353.873 90.1226C354.014 90.1803 354.143 90.2651 354.251 90.3724C354.36 90.4796 354.446 90.607 354.504 90.7474C354.563 90.8878 354.594 91.0384 354.594 91.1906C354.595 91.3428 354.565 91.4936 354.507 91.6343C354.449 91.7751 354.364 91.903 354.256 92.0109C354.148 92.1188 354.021 92.2044 353.88 92.263C353.739 92.3215 353.588 92.3518 353.435 92.3521C353.433 92.3521 353.43 92.3521 353.428 92.3521Z" fill="#0282F8"/>
<path d="M278.379 175.547C284.513 183.836 294.988 187.41 301.305 195.541C302.774 197.39 303.912 199.478 304.669 201.712C305.258 203.694 305.691 205.72 305.962 207.77C306.618 211.903 307.393 216.306 311.026 218.926C315.81 222.376 322.061 221.531 327.527 220.744C327.683 220.726 327.84 220.768 327.965 220.863C328.09 220.958 328.173 221.098 328.197 221.253C328.221 221.408 328.183 221.566 328.092 221.694C328.001 221.822 327.864 221.909 327.709 221.938C322.687 222.661 317.315 223.369 312.538 221.183C310.375 220.23 308.551 218.646 307.309 216.64C306.288 214.822 305.592 212.841 305.251 210.786C304.835 208.682 304.594 206.547 304.147 204.449C303.7 202.233 302.865 200.113 301.682 198.184C299.09 194.044 295.2 190.923 291.271 188.109C286.339 184.576 281.085 181.237 277.428 176.295C276.966 175.671 277.915 174.919 278.379 175.547L278.379 175.547Z" fill="#3F3D56"/>
<path d="M324.433 228.58L330.044 226.076L332.76 224.865C333.242 224.65 333.728 224.442 334.208 224.219C334.502 224.082 335.081 223.871 334.978 223.462C334.909 223.184 334.535 222.96 334.321 222.802C333.891 222.486 333.453 222.179 333.019 221.868L330.577 220.116L325.531 216.496C325.407 216.399 325.327 216.258 325.306 216.103C325.285 215.948 325.325 215.79 325.418 215.664C325.511 215.538 325.65 215.453 325.805 215.426C325.96 215.4 326.119 215.435 326.248 215.523C329.178 217.625 332.132 219.696 335.038 221.829C335.582 222.153 335.987 222.663 336.178 223.264C336.233 223.612 336.176 223.968 336.016 224.282C335.856 224.596 335.601 224.852 335.287 225.014C334.54 225.427 333.766 225.789 332.969 226.095L330.525 227.185L324.914 229.689C324.768 229.746 324.605 229.744 324.46 229.684C324.314 229.624 324.198 229.51 324.136 229.366C324.074 229.222 324.07 229.06 324.125 228.913C324.181 228.766 324.291 228.647 324.433 228.58H324.433Z" fill="#3F3D56"/>
<path d="M374.833 225.61H346.954C346.646 225.611 346.35 225.49 346.131 225.274C345.913 225.058 345.789 224.764 345.788 224.457C345.787 224.15 345.907 223.855 346.124 223.637C346.341 223.419 346.635 223.296 346.943 223.294C346.947 223.294 346.95 223.294 346.954 223.294H374.833C375.141 223.293 375.437 223.414 375.655 223.63C375.874 223.846 375.997 224.14 375.999 224.447C376 224.754 375.879 225.049 375.663 225.267C375.446 225.485 375.151 225.608 374.844 225.61C374.84 225.61 374.837 225.61 374.833 225.61Z" fill="#0282F8"/>
<path d="M57.0136 180.599C56.4857 181.641 55.737 182.557 54.8191 183.283C53.9013 184.008 52.8362 184.527 51.6977 184.802C50.5591 185.077 49.3741 185.102 48.2248 184.876C47.0754 184.65 45.9891 184.177 45.041 183.491L16.0044 197.265L14.0584 189.153L43.6292 171.782C44.9062 170.277 46.6927 169.291 48.6501 169.012C50.6076 168.732 52.6 169.178 54.2498 170.264C55.8996 171.351 57.0922 173.003 57.6016 174.908C58.111 176.813 57.9018 178.837 57.0136 180.599L57.0136 180.599Z" fill="#FFB6B6"/>
<path d="M45.8244 138.76L25.3925 180.376L34.0273 176.475L40.0369 173.757L43.0498 185.167C43.0498 185.167 41.0547 187.099 37.9085 189.64C33.3972 193.287 26.5273 198.195 19.7988 200.465C14.5323 202.245 9.35871 202.41 5.47345 199.092C-1.90127 192.796 5.30787 167.791 12.2747 148.752C16.9394 136.002 21.4911 125.934 21.4911 125.934C21.4911 112.487 47.6695 93.1519 52.5281 90.5069C55.3027 89.0012 56.07 91.1941 56.07 91.1941L40.8446 113.413L45.3963 131.811L46.6846 137.009L45.8244 138.76Z" fill="#0282F8"/>
</svg>
