<svg width="1440" height="288" viewBox="0 0 1440 288" fill="none" xmlns="http://www.w3.org/2000/svg">
<path fill-rule="evenodd" clip-rule="evenodd" d="M0 216L26.4 174C52.8 132 106.8 48 159.6 48C213.6 48 266.4 132 320.4 174C373.2 216 427.2 216 480 186C532.8 156 586.8 96 639.6 60C693.6 24 746.4 12 800.4 30C853.2 48 907.2 96 960 138C1012.8 180 1066.8 216 1119.6 222C1173.6 228 1226.4 204 1280.4 162C1333.2 120 1387.2 60 1413.6 30L1440 0V288H1413.6C1387.2 288 1333.2 288 1280.4 288C1226.4 288 1173.6 288 1119.6 288C1066.8 288 1012.8 288 960 288C907.2 288 853.2 288 800.4 288C746.4 288 693.6 288 639.6 288C586.8 288 532.8 288 480 288C427.2 288 373.2 288 320.4 288C266.4 288 213.6 288 159.6 288C106.8 288 52.8 288 26.4 288H0V216Z" fill="#0099FF"/>
</svg>
