<svg width="1445" height="96" viewBox="0 0 1445 96" fill="none" xmlns="http://www.w3.org/2000/svg">
<path d="M-24 70.0414L8.93129 54.8988C41.8626 39.7563 109.222 26.0847 175.085 26.0847C242.444 26.0847 308.307 39.7563 375.666 54.8988C441.529 70.0414 508.888 70.0414 574.751 59.2253C611.489 53.192 648.693 43.7935 685.843 34.4085C715.294 26.9685 744.711 19.5371 773.835 13.7977C841.195 0.818332 907.057 -3.50811 974.417 2.98155C1030.55 8.513 1087.78 21.9023 1144.24 35.1123C1154.02 37.4007 1163.78 39.6837 1173.5 41.9195C1239.36 57.062 1306.72 70.0414 1372.59 72.2046C1439.95 74.3678 1505.81 65.7149 1573.17 50.5724C1606.67 42.87 1635.98 39.4661 1661.02 36.5571C1685.21 33.7472 1705.43 31.3991 1721.61 26.0847H1739.32L1843 50.5724L1772.25 96H1739.32H1573.17H1372.59H1173.5H974.417H773.835H574.751H375.666H175.085H8.93129H-24V70.0414Z" fill="#0099FF"/>
<path d="M-24 70.0414L8.93129 54.8988C41.8626 39.7563 109.222 26.0847 175.085 26.0847C242.444 26.0847 308.307 39.7563 375.666 54.8988C441.529 70.0414 508.888 70.0414 574.751 59.2253C611.489 53.192 648.693 43.7935 685.843 34.4085C715.294 26.9685 744.711 19.5371 773.835 13.7977C841.195 0.818332 907.057 -3.50811 974.417 2.98155C1030.55 8.513 1087.78 21.9023 1144.24 35.1123C1154.02 37.4007 1163.78 39.6837 1173.5 41.9195C1239.36 57.062 1306.72 70.0414 1372.59 72.2046C1439.95 74.3678 1505.81 65.7149 1573.17 50.5724C1606.67 42.87 1635.98 39.4661 1661.02 36.5571C1685.21 33.7472 1705.43 31.3991 1721.61 26.0847H1739.32L1843 50.5724L1772.25 96H1739.32H1573.17H1372.59H1173.5H974.417H773.835H574.751H375.666H175.085H8.93129H-24V70.0414Z" stroke="white"/>
</svg>
